<svg version="1.1" xmlns="http://www.w3.org/2000/svg" viewBox="0 0 896.5 238.5" width="896.5" height="238.5">
  <!-- svg-source:excalidraw -->
  
  <defs>
    <style>
      @font-face {
        font-family: "Virgil";
        src: url("https://excalidraw.com/Virgil.woff2");
      }
      @font-face {
        font-family: "Cascadia";
        src: url("https://excalidraw.com/Cascadia.woff2");
      }
    </style>
  </defs>
  <rect x="0" y="0" width="896.5" height="238.5" fill="#ffffff"></rect><g stroke-linecap="round"><g transform="translate(589.2695978722502 164.27687239345477) rotate(0 -141.4865237743723 2.8593987862354595)"><path d="M-0.64 1.08 C-48.02 1.81, -237.05 3.27, -284.2 4.03 M1.23 0.6 C-45.81 1.5, -234.49 4.6, -282.12 5.12" stroke="#000000" stroke-width="1" fill="none"></path></g><g transform="translate(589.2695978722502 164.27687239345477) rotate(0 -141.4865237743723 2.8593987862354595)"><path d="M-252.28 -7.53 C-264.07 -3.3, -269.9 0.27, -283.89 4.04 M-253.86 -5.5 C-261.85 -3.08, -269.75 0.91, -282.39 4.19" stroke="#000000" stroke-width="1" fill="none"></path></g><g transform="translate(589.2695978722502 164.27687239345477) rotate(0 -141.4865237743723 2.8593987862354595)"><path d="M-251.99 12.99 C-263.8 10.97, -269.72 8.3, -283.89 4.04 M-253.57 15.02 C-261.83 11.48, -269.81 9.5, -282.39 4.19" stroke="#000000" stroke-width="1" fill="none"></path></g></g><g transform="translate(400 167) rotate(0 48 12.5)"><text x="0" y="18" font-family="Virgil, Segoe UI Emoji" font-size="20px" fill="#000000" text-anchor="start" style="white-space: pre;" direction="ltr">Msg Reply</text></g><g stroke-linecap="round" transform="translate(10 10) rotate(0 151.5 107)"><path d="M0 0 C0 0, 0 0, 0 0 M0 0 C0 0, 0 0, 0 0 M-0.44 6.71 C1.46 4.78, 3.15 3.76, 4.71 -0.28 M-0.24 6.44 C1.99 4.04, 3.26 2.29, 5.29 0.2 M-0.03 13.58 C2.93 9.64, 7.08 3.47, 10.22 0.67 M0.02 11.56 C2.96 7.24, 7.02 3.6, 10.37 -0.13 M-0.42 18.69 C6.2 13.49, 11.96 7.92, 16.49 1.5 M-0.17 18.34 C5.86 10.58, 12.51 5.15, 15.76 -0.48 M-1.02 24.65 C4.2 17.55, 7.97 13.42, 19.31 1.07 M0.85 24.19 C5.1 16.67, 12.6 11.56, 20.99 -0.29 M0.76 29.11 C8.32 22.67, 14.56 14.05, 28.05 1.21 M0.55 29.88 C9.88 19.39, 20.75 6.16, 25.56 0.94 M-1.82 36.9 C5.23 27.77, 14.35 20.71, 33.15 -0.32 M-0.6 37.09 C6.55 28.9, 13.41 20.9, 32.25 0.58 M-0.65 43.43 C11.66 27.57, 24.33 11.34, 36.98 -0.84 M0.27 41.61 C11.98 28.8, 23.44 14.55, 36.33 0.97 M1.46 47.84 C14.03 29.62, 29.35 13.69, 41.26 -1.93 M0.85 49.7 C15.26 33.3, 28.68 15.3, 42.1 0.5 M1.58 56.45 C17.07 34.51, 33.3 15.31, 46 -0.61 M-0.32 53.89 C11.7 41.27, 21.66 29.75, 48.14 -0.29 M-0.47 59.66 C17.59 40.65, 35.81 23.05, 52.96 1.44 M-0.7 61.16 C20.92 35.96, 42.16 12.15, 53.93 0.37 M0.75 67.48 C13.78 49.82, 28.05 34.59, 56.56 -1.26 M0.22 66.69 C16.24 48.02, 33.75 26.52, 58.98 -0.4 M-1.55 74.57 C20.67 47.77, 45.08 18.82, 63.33 0.76 M-0.6 72.26 C19.8 49.44, 40.99 26.52, 63.53 -1.05 M1.87 79.36 C16.02 61.82, 34.07 39.94, 66.83 0.81 M-0.33 79.57 C16.5 60.48, 32.54 41.11, 69.69 0.48 M1.01 85.54 C26.05 54.71, 54.95 25.92, 75.11 -1.22 M0.71 85.11 C19.45 62.71, 39.21 40.16, 74.09 -0.14 M-0.35 92.96 C21.31 69.84, 41.47 46.08, 77.67 2.01 M-0.76 91.22 C27.11 59.73, 54.31 30.46, 79.04 0.5 M0.06 99.11 C25.75 64.91, 56.5 31.85, 84.82 0.04 M0.01 96.96 C27.68 67.33, 53.9 34.45, 85.18 0.58 M-0.76 102.21 C30.14 71.59, 56.52 39.19, 90.69 1.5 M-0.79 103.44 C31.31 65.79, 65.14 28.52, 90.65 -0.8 M-0.87 110.31 C32.67 70.34, 66.66 31.12, 96.64 0.84 M-1.06 110.15 C19.41 84.77, 41.24 61.43, 95.75 -0.56 M1.44 116.79 C22.53 88.47, 46.05 60.25, 102.2 -0.76 M1.2 114.86 C26.61 84.7, 53.91 55.29, 100.07 0.48 M-1.48 121.22 C22.08 94.69, 45.22 69.11, 104.51 -0.7 M-0.94 121.64 C25.14 93.94, 48.47 68.19, 107.17 -1.34 M0.17 128.92 C38.31 81.44, 77.47 36.67, 113.25 1.97 M0.62 128.76 C33.04 89.75, 65.63 49.95, 111.72 -0.4 M-0.13 131.97 C42.43 87.08, 83.89 40.03, 117.43 2.03 M-0.51 132.99 C25.88 102.98, 51.03 74.12, 115.52 0.03 M-1 140.35 C36.65 98.81, 78.51 53.05, 123.59 1.2 M0.2 140.99 C35.28 100.12, 70.84 58.74, 121.91 0.15 M-0.42 147.43 C44.57 95.33, 87.31 47.86, 128.06 -0.81 M1.22 146.12 C30.47 107.87, 63.17 71.5, 127.24 0.97 M1.14 152.82 C45.71 100.93, 94.24 47.86, 133.57 -0.69 M-0.8 151.64 C45.44 96.91, 94.03 42.51, 131.92 -0.8 M-1.72 159.91 C29.26 125.73, 57.4 93.31, 138.68 -0.88 M-0.47 159.05 C52.13 97.04, 107.07 34.42, 138.13 0.04 M-1.13 163.43 C54.67 98.52, 113.44 36.76, 142.8 -0.74 M0.5 164.5 C56.22 99.82, 112.42 35.05, 142.69 -0.16 M0.43 172.49 C43.59 119.33, 89.42 68.91, 146.79 -1.17 M-0.52 170.12 C36.77 129, 73.27 87.59, 147.46 0.69 M0.61 177.93 C52.09 116.66, 104.78 55.63, 154.53 -1.01 M0.16 175.94 C60.38 108.56, 120.82 40.17, 154.16 -0.89 M-1.03 181.79 C35.04 140.85, 71.61 102.74, 159.58 -0.74 M0.81 182.68 C40.08 136.8, 78.16 90.95, 158.91 -0.16 M-0.27 188.84 C37.26 149.21, 70.43 109.09, 164.15 0.7 M0.13 189.12 C51.97 128.31, 105.11 67.17, 164.51 -0.35 M0.07 194.57 C51.46 138.76, 101.46 82.21, 168.79 -0.63 M0.63 194.46 C66.97 117.81, 131.79 43.53, 169.63 -0.5 M-0.02 201.51 C68.09 123.83, 135.78 43.28, 174.51 -1.01 M-0.45 201.39 C40.9 151.86, 83.32 103.27, 174.46 0.06 M0.37 206.45 C52.1 145.95, 105.08 81.68, 179.39 1.17 M0.22 207.66 C50.13 151.34, 100.05 94.85, 179.77 0.58 M-0.4 213.36 C66.25 139.72, 132.33 63.09, 187.1 -1.07 M0.01 213.15 C74.39 128.04, 148.1 43.64, 186.08 -0.58 M0.9 217.95 C67.11 140.4, 134.2 66.42, 191 -1.26 M2.58 216.17 C52.36 160.37, 100.62 104.73, 191.24 0.73 M6.7 216.69 C77.25 136.92, 146.36 54.5, 194.89 1.12 M8.67 216.42 C67.65 146.47, 128.63 75.85, 195.91 -0.61 M13.85 217.24 C83.73 134.06, 156.68 53.45, 200.13 1.38 M12.9 217.4 C75.8 145.1, 135.94 75.22, 200.88 0 M19.06 215.64 C55.1 173.35, 93.07 129.34, 208.13 0.86 M19.21 215.91 C81.39 146.06, 144.46 72.78, 206.58 0.33 M23.23 216.53 C78.74 150.44, 135.92 87.95, 210.66 1.43 M24.26 217.21 C99.45 129.92, 173.23 44.63, 211.93 -0.29 M29.32 215.7 C102.11 130.67, 177.78 44, 216.41 -1.41 M29.73 216.23 C73.87 166.92, 116.55 117.53, 216.84 -0.91 M34.21 217.27 C74.87 167.68, 118.45 117.05, 223.22 0.18 M34.4 217.24 C77.12 166.12, 120.88 116.78, 222.6 0.35 M38.6 216.18 C114.43 133.39, 184.31 50.76, 229.5 -1.68 M40.47 216.58 C116.08 128.31, 190.56 42.51, 228.34 0.36 M44.95 215.45 C88.33 163.94, 133.54 112.39, 233.69 0.23 M45.53 216.35 C105.13 146.6, 166.52 76.56, 232.92 -0.7 M49.28 217.71 C125.66 131.21, 198.07 46.63, 238.95 0.9 M50.47 216.1 C109.96 147.21, 168.86 77.94, 238.27 0.04 M54.16 215.23 C96.97 165.48, 142.55 115.76, 243.8 1.04 M55.98 215.97 C94.51 171.58, 133.58 125.37, 243.98 0.61 M60.54 214.72 C122.83 141.59, 188.85 68.1, 249.36 -0.56 M61.35 216.03 C107.2 161.42, 154.86 108.76, 248.68 -0.41 M65.63 215.29 C112.77 161.15, 161.91 103.68, 253.52 0.35 M65.52 216.29 C131.7 142.24, 195.25 67.75, 254.14 0.68 M72.84 215.08 C132.18 146.34, 195.06 75.3, 260.92 0.5 M71.96 216.04 C133.64 144.44, 197.44 72.58, 258.84 0.72 M77.62 216.43 C115.93 172.96, 155.72 128.97, 265.67 -1.21 M76.09 216.98 C121.13 167.45, 165.33 116.06, 265.81 -0.43 M83.41 217.42 C145.12 140.94, 209.58 67.96, 270.46 1.41 M82.23 216.44 C140.57 150.46, 199.11 83.21, 270.09 0.15 M87.46 217 C142.31 154.07, 196.31 92.39, 275.28 1.33 M88.05 216.52 C148.64 145.28, 208.87 77.08, 275.67 0.26 M93.81 215.66 C162.52 136.04, 230.41 56.53, 281.42 1.57 M92.39 215.9 C167.13 130.01, 241.08 44.74, 281.44 0.14 M99.05 217.48 C171.18 134.49, 244.25 48.93, 286.24 0.7 M97.89 215.89 C147.96 158.26, 199.06 100.36, 286 0.34 M102.33 215.68 C156.24 153.57, 209.49 92, 290.2 1.02 M103.7 216.79 C175.87 130.65, 248.39 46.58, 291.79 0.22 M109.26 215.89 C162.4 152.64, 217.95 92.58, 297.68 0.06 M108.08 216.36 C165.69 152.08, 222.53 87.44, 296.31 0.32 M114.66 215.6 C178.64 144.14, 240.95 69.27, 302.83 -1.17 M114.71 215.3 C184.51 132.24, 255.99 49.07, 302.25 -0.59 M118.56 215.37 C162.34 165.92, 205.25 113.79, 306.58 1.61 M118.7 215.69 C165.87 163.4, 212.37 110.64, 305.24 2.11 M123.46 217.19 C176.7 158.5, 228.66 98.06, 305.06 9.06 M124.35 216.61 C172.36 162.56, 218.22 108.96, 305.1 8.35 M129.44 216.69 C166.56 172.9, 206.1 128.11, 306.62 14.22 M129.8 216.45 C184.37 154.7, 237.62 93.25, 305.57 14.3 M133.77 215.11 C179.33 168.23, 223.02 117.82, 306.5 19.82 M135.36 215.92 C196.46 145.64, 260.02 72.72, 306.01 19.79 M142.08 216.59 C181.16 171.56, 223.05 123.66, 305.63 26.92 M140.57 216.15 C187.16 163.97, 234.17 111.44, 305.66 26.45 M145.55 215.51 C193.26 162.19, 236.74 109.99, 305.82 32.91 M144.86 215.98 C188.35 168.09, 232.14 119.92, 305.18 32.13 M152.24 215.33 C195.28 163.5, 239.23 114.93, 306.35 37.52 M151.65 215.62 C201.9 157.77, 251.94 99.35, 305.97 38.76 M157.55 215.79 C216.58 149.54, 274.19 83.31, 305.24 43.38 M155.83 217.22 C214.67 148.96, 271.39 83.97, 305.04 43.91 M162.69 215.69 C210.2 161.88, 257.97 105.73, 306.03 49.32 M161.08 216.99 C197.3 175.7, 233.64 134.42, 306.09 51.16 M168.1 216.32 C205.44 174.31, 241.28 131.22, 305.51 57.64 M167.53 217.35 C214.31 161.12, 261.63 107.1, 305.78 58.04 M171.85 217.88 C214.4 166.3, 256.04 118.31, 307.4 63.2 M171.92 215.81 C219.62 162.36, 266.12 108.81, 304.86 62.6 M176.82 215.41 C205.96 187.46, 233.5 154.66, 306.62 68.48 M177.71 217.38 C211.08 178.97, 243.75 142.49, 305.01 69.41 M182.2 217.44 C210.58 183.64, 239.83 152.18, 305.93 76.33 M182.89 215.65 C209.37 188.81, 232.62 159.85, 305.97 74.52 M186.94 215.01 C215.56 188.53, 242.02 156, 304.75 82.58 M188.84 217.08 C236.61 162.74, 282.07 108.6, 305.43 80.64 M195.74 217.34 C234.31 168.1, 277.28 122.56, 305.03 87.55 M194.45 215.33 C226.63 178.52, 259.49 139.67, 305.64 87.36 M199.88 214.89 C224.42 185.49, 251.01 156.98, 305.64 93.06 M198.19 216.41 C236.17 172.26, 275.59 127.88, 305.69 93.41 M202.73 216.19 C232.58 180.42, 262.39 146.31, 306.57 101.57 M203.8 216.71 C242.89 171.56, 281.88 126.26, 304.99 100 M208.6 214.61 C241.26 178.05, 278.14 138.84, 305.74 105.72 M208.37 216.1 C238.16 183.48, 268.25 149.88, 306.26 105.67 M216.25 217.2 C243.31 185.3, 270.46 153.01, 303.93 111.12 M214.09 216.05 C243.27 184.26, 273.21 149.73, 305.66 111.42 M219.77 215.5 C237.18 195.46, 254.41 175.12, 305.56 117.95 M220.35 216.71 C243.79 190.58, 267.44 164.25, 305.83 117.5 M226.07 214.35 C251.84 184.89, 280.19 155.9, 306.89 123.96 M225.38 216.99 C241.95 197.49, 258.01 178.99, 305.32 124.76 M231.79 214.71 C253.82 188.68, 280.48 161.6, 306.28 129.62 M230.49 215.67 C253.65 189.69, 274.79 164.14, 304.98 131.06 M236.06 215.18 C252.88 195.81, 271.4 179.15, 306.93 137.6 M234.95 216.26 C254.44 194.25, 274.88 171.56, 306.04 135 M240.77 215.13 C255.92 198.37, 272.67 180.54, 303.85 141.66 M241.55 216.28 C261.52 192.14, 281.28 169.16, 305.2 142.14 M244.74 215.72 C268.51 192.33, 286.96 168.22, 306.62 150.13 M246.94 215.7 C260.72 200.53, 274.21 183.31, 304.64 148.73 M250.54 215.46 C271.58 192.62, 295.56 166.47, 305.59 155.03 M251.69 216.69 C264.86 202.68, 277.79 187.69, 306.51 154.13 M255.4 215.05 C272.55 201.48, 286.37 183.16, 304.18 159.12 M257.41 215.78 C270.27 202.14, 284.09 185.53, 306.28 160.13 M262.67 216.17 C278.68 198.57, 295.85 180.57, 307.54 165.46 M263.44 216.9 C271.19 205.03, 283.03 192.88, 305.83 165.79 M268.71 218.29 C281.48 201.64, 295.14 182.18, 303.6 172.22 M267.98 217.55 C276.35 206.61, 286.38 194.85, 305.54 172.53 M274.41 217.51 C283.08 206.71, 289.64 197.09, 303.79 178.24 M272.74 215.8 C281.91 204.59, 291.77 193.64, 305.33 178.98 M280.05 215.33 C284.05 210.01, 289.91 204.02, 307.26 186.08 M278.14 216.45 C288.59 204.72, 296.59 195.46, 306.06 184.32 M284.77 217.51 C292.06 205.89, 300.1 198.88, 307.13 191.14 M283.91 216.1 C290.72 209.73, 295.51 201.68, 306.01 190.66 M289.51 214.85 C294.44 210.03, 299.72 206.18, 305.24 197.14 M288.28 217.25 C294.68 209.05, 301.81 201.92, 304.86 196.81 M292.73 217.72 C297.82 212.28, 299.87 210.52, 306.87 204.76 M294.61 215.51 C297.26 213.27, 300.41 209.3, 304.94 202.56 M299.62 217.32 C301.3 214.09, 304.13 210.81, 305.01 209.12 M299.08 216.79 C301.35 214.49, 302.6 212.3, 305.03 209.79" stroke="#ced4da" stroke-width="0.5" fill="none"></path><path d="M-1.19 0.1 C101.78 -0.85, 202.44 0.77, 304 -0.72 M-0.41 0.43 C66.99 0.04, 132.73 -0.13, 303.54 -0.22 M303.33 -0.47 C303.56 49.41, 304.93 102.5, 304.61 214.51 M302.18 0.82 C301.71 71.07, 300.83 143.36, 302.13 213.9 M304.06 212.84 C191.37 216.65, 80.25 217.1, 0.34 214.56 M303.32 214.57 C204.87 215.45, 106.35 215.58, 0.15 213.44 M-0.47 213.13 C0.47 132.44, 0.31 50.96, 1.59 0.09 M-0.06 214.33 C-1.79 135.67, -1.28 58.22, -0.14 -0.43" stroke="#000000" stroke-width="1" fill="none"></path></g><g transform="translate(113 15) rotate(0 48.5 25)"><text x="48.5" y="18" font-family="Virgil, Segoe UI Emoji" font-size="20px" fill="#000000" text-anchor="middle" style="white-space: pre;" direction="ltr">Front End</text><text x="48.5" y="43" font-family="Virgil, Segoe UI Emoji" font-size="20px" fill="#000000" text-anchor="middle" style="white-space: pre;" direction="ltr">(Go)</text></g><g stroke-linecap="round" transform="translate(186 86) rotate(270 92 27)"><path d="M0 0 C0 0, 0 0, 0 0 M0 0 C0 0, 0 0, 0 0 M-0.24 6.23 C0.33 5.78, 1.75 4.57, 5.14 -0.33 M-0.46 6.09 C1.61 4.23, 3.83 1.81, 5.27 0.53 M0.8 10.53 C1.14 8.6, 5.08 8.6, 12.15 0.67 M0.88 12.05 C4.68 7.63, 8.6 3.25, 11.31 -0.02 M0.64 20.07 C5.6 12.14, 8.39 9.38, 15.04 1.91 M0.02 17.59 C3.47 14.96, 6.17 11.5, 15.45 -0.11 M-1.38 23.3 C6.6 14.01, 14 7.94, 23.03 1.31 M0.85 23.86 C8.79 13.66, 17.63 4.64, 21.12 -0.52 M-1.28 29.24 C10.06 21.24, 19.43 9.51, 26.24 -0.28 M0.17 29.49 C6.42 23.58, 10.22 18.7, 26.62 0.53 M1.48 38.73 C10.43 24.19, 21.67 11.21, 33.55 1.79 M-0.46 36.92 C10.97 22.6, 24.22 8.27, 31.26 0.74 M0.45 43.07 C10.14 28.75, 23.86 16.58, 35.88 0.96 M0.8 41.78 C8.88 34.19, 15.67 24.87, 36.72 -0.12 M0.37 49.16 C11.92 35.18, 20.85 25.32, 41.62 -1.71 M0.62 49.24 C16.78 29.59, 32.71 10.68, 41.7 0.78 M-0.03 54.95 C14.81 38.87, 27.64 24.6, 47.6 -0.74 M0.41 53.79 C12.33 39.87, 24.49 26.75, 47.1 -0.49 M4.81 55.58 C14.6 45.05, 27.47 30.9, 54.48 0.59 M5.41 54.63 C18.87 39.52, 31.1 25.18, 52.63 0.43 M11.66 55.96 C22.56 43.13, 31.19 31.13, 57.74 -0.96 M10.36 54.58 C23.16 41.85, 34.8 27.2, 58.03 0.32 M18.45 53.29 C30.96 36.61, 48.6 18.32, 63.08 -1.75 M15.56 53.82 C30.09 40.69, 41.27 25.51, 63.65 -0.58 M20.59 53.12 C36.33 37.25, 55.31 15.19, 69.37 1.52 M22.45 54.28 C34.23 39.74, 48.17 24.5, 69.68 -0.42 M28.4 54.17 C40.55 39.98, 53.32 21.67, 76.1 -1.37 M27.3 53.69 C44.97 33.62, 63.27 10.78, 74.74 -0.68 M32.07 55.15 C45.81 37.82, 60.52 20.48, 78.29 -1.32 M31.33 54.75 C48.75 35.46, 64.37 18.54, 79.09 -0.08 M39.07 55.56 C54.35 35.5, 72.13 14.86, 85.94 0.85 M38.38 53.16 C50.56 38.72, 64.16 24.31, 85.25 0.55 M43.12 54.54 C59.39 35.49, 79.58 14.36, 90.99 -0.72 M43.07 54.76 C60.98 34.68, 77.01 14.2, 89.19 0.33 M49.59 55.62 C59.37 43.72, 69.37 30.93, 94.71 -2.19 M48.43 53.55 C62.92 37.44, 76.3 21.02, 94.96 -0.59 M52.48 53.58 C66.02 40.16, 77.96 27.6, 98.69 -1.12 M54.1 54.89 C64.42 41.18, 77.12 27.2, 99.83 -0.86 M59.15 56.02 C74.5 37.01, 86.06 23.93, 108.25 -1.78 M59.3 54.26 C70.46 38.84, 83.43 24.34, 107 -0.94 M62.6 54.35 C80.29 36.98, 96.3 15.8, 111.35 1.8 M64.27 54.62 C72.68 43.82, 83.54 31.84, 110.71 -0.93 M67.64 52.96 C79.47 41.45, 91.67 28.26, 117.44 1.29 M68.71 54.8 C85.18 37.19, 99.52 20, 116.27 1.25 M73.67 52.68 C84.25 41.17, 97.44 31.69, 123.62 -0.84 M73.8 55.27 C91.58 34.43, 109.4 14.11, 122.46 0.19 M77.67 55.67 C95.39 39.17, 109.35 21.36, 126.89 -0.23 M79.32 54.31 C92.38 41.06, 103.22 29.06, 127 0.35 M85.58 56.2 C100.51 37.3, 115.71 16.04, 132.89 -1.14 M84.32 55.02 C97.6 40.21, 109.04 27.21, 131.56 0.91 M91.27 53.44 C105.47 36.86, 118.81 22.1, 136.91 -1.56 M90.29 55.51 C106.95 36.86, 122.87 16.66, 137.87 0.85 M95.95 54.32 C114.41 36.96, 130.91 15.7, 141.25 -0.44 M95.82 53.91 C106.65 41.12, 117.56 29.5, 143.42 -0.98 M99.14 54.31 C112.36 42.72, 123.7 28.73, 148.21 1.13 M101.72 54.52 C118.16 34.79, 136.25 14.63, 147.58 -0.68 M106.1 52.23 C117.65 43.81, 127.85 32.89, 153.52 0.72 M105.72 54.85 C121.13 38.57, 136.47 19.75, 153.31 0.67 M110.74 55.1 C125.61 39.86, 138.15 21.77, 159.23 1.42 M111.58 53.78 C121.64 41.78, 133.38 28.67, 159.24 0.22 M119.09 52.9 C129.02 39.31, 141.8 29.47, 163.23 0.58 M117.8 54.59 C133.29 35.09, 149.25 16.56, 165.41 -0.65 M120.23 55.43 C137.37 37.77, 150.79 22.78, 168.11 0.7 M122.72 55.1 C134.53 41.33, 145.91 27.86, 169.35 0.85 M129.7 55.09 C142.07 39.27, 151.66 24.47, 174.65 -1.84 M127.24 54.75 C136.9 43, 147.77 31.61, 175.78 -1.07 M132.48 55.7 C152.12 34.85, 171.66 10.81, 178.72 2.12 M131.9 54.68 C145.01 40.16, 156.1 26.2, 180.77 0.39 M138.41 55.32 C150.71 36.67, 162.41 22.93, 184.09 0.01 M137.61 54.82 C147.8 42.14, 158.23 30.31, 184.72 1.39 M145.1 55.07 C158.04 37.52, 172.22 18.03, 184.73 7.42 M142.75 54.03 C158.25 36.99, 173.69 19.85, 183.89 7.65 M149.43 53.92 C156.35 46.48, 164.83 38.76, 186.05 11.27 M149.88 53.13 C159.44 42.11, 171.57 28.14, 185.89 12.87 M154.41 53.51 C165.33 42.79, 177.83 28.54, 184.75 19.8 M154.82 55.05 C159.63 46.94, 167.41 39.13, 184.69 19 M160.68 52.97 C168.84 45.9, 174.46 36.73, 186.15 26.75 M159.39 53.87 C167.52 45.58, 173.4 37.07, 184.21 25.75 M165.43 53.75 C171.5 47.54, 180.07 40.27, 184.41 30.49 M164.52 54.99 C169.76 48.63, 174.17 41.88, 185.8 31.92 M169.82 54.37 C176.65 46.29, 180.69 39.88, 184.81 39.07 M170.9 54.12 C175.12 47.63, 180.45 41.89, 184.62 37.81 M174.29 55.07 C178.14 48.61, 183.85 44.89, 186.13 42.09 M175.96 53.69 C178.09 51.47, 181.67 47, 185.56 43.01 M180.06 54.65 C181.73 52.95, 184.17 50.14, 185.03 49.61 M180.52 55.01 C181.47 53.58, 182.39 52.51, 184.94 49.1" stroke="#868e96" stroke-width="0.5" fill="none"></path><path d="M-1.25 -0.72 C65.84 0.84, 128.92 0.59, 183 0.17 M-0.98 -0.91 C56.81 1.12, 113.35 -0.64, 183.59 0.98 M183.16 1.23 C183.37 16.21, 182.56 33.95, 184.87 53.83 M184.89 -0.23 C182.88 14.65, 183.1 30.89, 184.25 53.8 M182.77 53.42 C140.17 50.93, 95.68 53, 0.73 54.82 M183.1 53.77 C143.64 54.64, 102.65 54.35, -0.95 53.58 M-0.16 54.8 C1.19 39.86, 0.47 21.71, -1.3 -0.53 M-0.47 54.69 C-0.01 42.87, 1.45 31.25, 0.41 1" stroke="#000000" stroke-width="1" fill="none"></path></g><g transform="translate(255 100.5) rotate(270 23 12.5)"><text x="23" y="18" font-family="Virgil, Segoe UI Emoji" font-size="20px" fill="#000000" text-anchor="middle" style="white-space: pre;" direction="ltr">Grpc</text></g><g stroke-linecap="round" transform="translate(588.5 11.5) rotate(0 149 108.5)"><path d="M0 0 C0 0, 0 0, 0 0 M0 0 C0 0, 0 0, 0 0 M-0.03 6.09 C1.46 3.31, 4.12 0.93, 5.44 0.17 M-0.22 6.04 C1.16 4.72, 3.5 2.3, 4.9 0.2 M-0.96 13.18 C2.94 9.43, 5.14 6.93, 11.37 1.41 M-0.35 11.75 C3.85 8.51, 5.9 4.05, 11.15 -0.59 M-0.11 16.44 C3.66 13.12, 9.61 9.55, 15.4 -1.2 M0.09 18.38 C6.35 11.04, 12.76 4.76, 16.3 0.86 M1.18 22.91 C8.15 13.7, 14.65 6.32, 20.16 0.57 M-0.64 24.09 C8.81 13.99, 16.71 4.85, 21.98 0.51 M-1.07 29.84 C8.63 17.74, 20.65 5.12, 24.45 1.01 M0.78 31.34 C7.68 22.26, 13.06 13.96, 26.88 0.73 M1.63 37.71 C9.71 24.49, 20.5 9.16, 31.06 -1.48 M-0.92 37.85 C11.28 22.91, 24.63 9.35, 31.38 0.09 M-1.16 43.01 C9.56 32.61, 21.69 18.9, 38.49 2.16 M0.34 42.13 C8.72 31.9, 18.41 22.1, 37.42 -0.33 M0 48.64 C9.95 35.56, 22.28 21, 41.07 -0.12 M-0.79 48.25 C16.03 30.36, 30.06 14.27, 41.94 0.44 M1.84 52.85 C18.59 34.9, 33.21 14.46, 48.47 0.64 M-0.47 53.87 C14.76 38.27, 29.86 21.2, 46.66 -0.32 M-0.03 59.45 C12.89 47.33, 21.53 33.04, 53.81 -1.36 M0.19 60.74 C14.39 43.98, 28.28 29.35, 53.47 0.38 M0.25 66.73 C16.54 49.67, 34.91 28.98, 57.16 -0.47 M-0.18 66.81 C18.22 45.8, 36.44 25.37, 58.24 -0.35 M1.67 73.88 C14.08 59.56, 25.89 41.3, 65.67 0.52 M-0.07 72.89 C14.83 55.87, 31.94 37.12, 64.16 0.12 M1.15 77.47 C23.68 52.01, 47.38 23.67, 69.08 0.66 M-0.99 80.35 C27.28 48.69, 52.35 19.47, 69.62 0.37 M-0.99 86.35 C25.53 56.65, 50.3 31.01, 75.82 0.94 M0.23 84.18 C23.96 58.58, 48.03 30.7, 73.53 0.28 M0.44 89.88 C18.61 68.16, 37.55 48.15, 80.55 -1.43 M0.29 90.53 C29.47 57.24, 60.68 23.15, 79.15 -0.49 M1.02 96.8 C30.97 60.54, 61.03 28.28, 84.23 -0.94 M-0.91 97.72 C27.59 65.38, 56.86 32.29, 85.48 -1.16 M-0.55 103.73 C30.51 68.55, 62.52 29.3, 89.67 -1.5 M-0.13 104.03 C18.15 82.92, 38.39 61.58, 89.03 0.63 M0.49 109.59 C32.32 70.09, 66.86 33.77, 97.62 -0.28 M0.33 110.26 C34.12 69.16, 67.1 31.02, 95.25 0.18 M-1.71 116.51 C24.56 89.36, 48.67 60.39, 102.31 -1.55 M-0.69 115.92 C30.33 79.8, 62.5 42.59, 100.31 0.19 M0.01 120.07 C31.74 90.49, 59.26 56.75, 107.52 -0.48 M0.65 121.68 C33.92 83.2, 66.68 45.71, 106.47 0.08 M1.19 130.18 C40.27 82.48, 83.96 35.04, 110.13 -0.91 M-0.12 127.43 C39.89 79.42, 81.79 32.49, 111.91 0.52 M0.62 133.56 C41.18 90.52, 80.41 45.21, 115.57 1.51 M-0.7 133.02 C42.58 85.33, 86.23 33.91, 115.45 -0.53 M1.15 142.16 C44.88 90.79, 90.61 39.48, 120.58 1.83 M0.18 139.89 C48.65 85.72, 96.41 30.47, 121.61 0.88 M-0.87 144.1 C32.8 108.74, 70.1 67.04, 126.15 2.21 M0.36 146.21 C41.95 97.88, 83.43 49.44, 126.82 0.38 M1.76 151.91 C48.51 97.02, 98.09 39.95, 131.04 -1.06 M-0.73 152.32 C32.28 115.85, 64.99 77.41, 132.99 0.34 M1.28 157.39 C38.17 113.98, 75.29 73.03, 136.61 1.9 M-0.8 157.93 C32.58 122.17, 64.84 86.29, 136.74 -0.39 M-0.98 163.74 C36.51 122.27, 76.98 78.58, 142.16 -0.97 M-0.05 165.2 C45.1 110.08, 90.31 58.68, 142.76 -0.85 M-0.56 172.54 C37.03 128.25, 74.06 85.92, 149.06 0.61 M-0.27 170.99 C49.36 113.5, 98.69 55.41, 147.96 0.23 M-0.08 177.39 C43.66 129.26, 86.57 79.51, 152.93 1.36 M-0.19 176.85 C36.75 131.31, 76.23 88.11, 153.07 0.63 M0.24 183.74 C56.96 118.82, 110.67 53.55, 157.93 -0.75 M0.1 183.13 C60.85 112.81, 122.63 40.51, 159.06 0.23 M-0.77 188.41 C60.85 118.2, 118.55 49.75, 165.49 -0.59 M0.5 188.49 C35.53 149.44, 70.34 109.13, 164.87 0.27 M0.17 195.3 C48.01 143.4, 92.62 90.74, 168.53 1.79 M-0.06 195.62 C54.11 133.09, 109.02 70.82, 169.05 0.55 M1.17 199.95 C35.31 160.72, 73.2 116.66, 173.62 -0.88 M-0.69 201.69 C37.33 157.22, 75.56 113.35, 175.7 0.36 M0.66 206.9 C60.84 138.78, 118.34 69.37, 181.47 0.54 M0.38 206.39 C63.11 133.29, 125.14 61.43, 179.7 0.79 M0.58 212.08 C49.98 154.88, 101.95 95.61, 186.99 0.13 M0.74 214.07 C39.94 165.66, 81.73 117.25, 185.59 -0.97 M0.42 218.05 C76.14 132.21, 150.15 48.4, 191.84 0.63 M0.69 218.05 C56.86 155.56, 109.45 93.08, 191.3 0.12 M6.59 216.4 C57.46 157.47, 112.03 96.28, 197.69 1.17 M7.27 217.86 C47.13 168.15, 89.14 120.91, 195.97 0.45 M11.15 217.45 C76.96 143.48, 141.24 66.43, 200.24 -0.98 M11.67 218.56 C54.69 168.27, 97.52 118.31, 200.73 -0.44 M17.99 216.44 C85.54 139.25, 152.01 62.68, 207.11 -1.32 M17.96 217.57 C80.51 144.5, 144.82 71.66, 207.28 0.33 M22.29 219.26 C65.38 169, 108.58 122.28, 210.64 1.55 M22.69 218.53 C70.18 159.97, 120.29 103.5, 212.67 -0.41 M26.85 217.04 C88.13 146.82, 149.42 76.56, 217.83 0.06 M27.74 217.26 C92.97 142.13, 157.86 68.36, 216.9 0.37 M34.47 219.36 C89.9 153.68, 147.18 89.23, 223.11 0.32 M32.87 218.68 C102.39 137.84, 171.59 58.47, 222.26 -0.48 M37.29 216.8 C109.26 137.79, 181.24 54.51, 229.29 -1.75 M38.03 218.25 C103.49 142.7, 167.21 67.79, 228.87 -0.07 M42.17 217.17 C112.73 138.97, 183.04 57.14, 232.33 -0.76 M43.47 217.37 C101.26 150.57, 161.01 83.13, 232.48 -0.31 M48.01 217.08 C125.26 131.36, 199.19 44.2, 238.62 1.01 M49.01 218.38 C104.49 155.14, 159.48 91.99, 238.94 0.54 M53.19 217.14 C107.76 157.05, 159.92 96.48, 244.05 0.51 M54.15 217.39 C120.08 143.33, 185.59 68.38, 244.27 -0.75 M59.16 218.31 C108.92 162.56, 158.15 105.81, 247.72 -0.66 M59.71 218.08 C113.1 159.77, 164.43 101.25, 248.5 0.63 M66.17 218.29 C139.11 130.55, 215.65 43.02, 255.61 0.11 M65.2 217.71 C125.35 150.75, 184.02 83.8, 254.36 -0.13 M70.39 218.43 C130.02 149.43, 190.71 82.03, 260.91 0.58 M69.91 218.03 C108.31 170.19, 149.96 123.72, 259.85 0.82 M75.1 218.63 C140.73 141.46, 206.27 68.31, 266.44 1.32 M75.33 218.7 C139.7 144.89, 204.84 70, 265.02 0.53 M81.53 218.94 C139.17 152.82, 194.21 85.91, 270.96 -0.18 M79.95 218.48 C153.12 136.17, 225.83 53, 270.6 0.12 M85.78 216.73 C133.25 162.24, 181.39 106.17, 276.55 1.18 M86.88 218.4 C154.27 137.63, 223.95 57.52, 275.76 -0.24 M90.61 217.36 C137.54 162.93, 187.76 107.46, 280.98 0.21 M91.09 218.46 C143.39 160.82, 195.14 100.35, 281.25 0.5 M96.37 219.24 C159.06 147.34, 218.42 77.41, 285.05 1.07 M96.06 217.78 C170.33 130.62, 244.66 45.39, 285.63 -0.65 M100.77 218.53 C175.07 134.06, 246.72 52.06, 290.94 -0.57 M101.08 218.79 C166.15 146.76, 230.54 72.85, 291.43 0.06 M107.85 218.27 C158.19 162.34, 206.69 103.86, 297.61 -0.89 M107.28 218.46 C148.1 169.82, 189.59 121.06, 296.93 -0.83 M112.73 218.03 C186.81 134.86, 259.86 49.83, 300.81 1.73 M112.49 218.36 C159.89 163.82, 207.44 109.25, 300.89 1.35 M116.5 217.01 C162.29 169.59, 204.39 123.8, 299.78 9.08 M117.28 217.48 C180.59 146.87, 241.25 75.83, 299.75 7.66 M123.29 218.82 C189.36 145.03, 252.42 70.34, 300.2 14.14 M122.87 217.8 C166.89 169.21, 210.4 119.7, 299.75 14.37 M127.55 219.35 C181.27 154.67, 236.19 94.06, 300.93 19.54 M128 217.04 C167.3 175.46, 206.22 130.41, 300.18 20 M132.75 217.43 C175.57 165.88, 221.67 117.51, 298.95 26.99 M133.03 218.93 C195.18 146.77, 256.73 76.84, 300.14 27.23 M138.48 218.81 C178.58 171.98, 218.66 126.36, 298.89 34.29 M139.86 217.9 C176.73 172.69, 217.02 127.6, 299.4 33.16 M143.75 218.08 C184.82 171.49, 223.64 126.12, 298.85 37.61 M145.01 217.46 C179.65 178.87, 214.4 138.01, 300.62 38.27 M149.66 218.84 C192.35 168.15, 234.21 120.17, 300.44 45.7 M150.65 218.25 C202.99 155.27, 257.38 94.14, 300.82 45.11 M156.53 218.41 C209.75 153.67, 266.62 92.04, 300.75 51.4 M154.53 218.36 C192.02 175.8, 229.6 131.12, 300.17 49.86 M159.54 218.74 C208.55 166.88, 253.04 114.96, 299.49 56.13 M161.27 217.72 C188.93 184.64, 218.29 150.77, 300.31 56.35 M166.68 217.25 C202.06 176.72, 239.4 134.45, 301.18 61.62 M165.08 218.69 C199.15 180.28, 231.17 143.83, 299.57 62.63 M169.02 219.19 C199.05 189.64, 223.03 155.89, 301.58 70.96 M171.08 219.34 C200.18 183.07, 229.36 149.16, 299.63 69.71 M177.38 216.6 C205.26 182.77, 237 147.97, 299.88 75.48 M175.37 218.27 C226.03 160.91, 274.34 106.48, 299.7 74.84 M179.56 217.01 C204.75 188.7, 230.66 161.14, 300.14 82.22 M181.08 218.09 C222.25 172.32, 263.26 124.07, 300.49 81.05 M186.89 217.01 C230.15 166.87, 274.84 118.86, 302 89.16 M187.41 217.14 C216.26 184, 245.16 150.57, 300.42 87.99 M189.94 216.38 C227.34 179.59, 262.12 138.83, 300.24 93.83 M191.43 218.03 C221.54 186.54, 250.5 152.3, 300.19 93.95 M198.56 218.25 C229.85 181.01, 260.86 144.35, 299.64 99.84 M197.42 216.99 C224.11 190.04, 247.9 160.82, 299.94 98.51 M201.5 219.31 C239.97 174.9, 278.12 129.58, 299.81 105.26 M202.7 218.34 C223.03 195.47, 243.27 172.02, 299.36 106.23 M206.39 217.95 C240.23 181.74, 274.7 143.65, 300.57 109.6 M209.02 217.83 C234.57 187.78, 260.92 157.71, 301.38 111.78 M211.37 216.52 C231.8 197.25, 251.02 176.29, 299.57 117.98 M212.33 219.11 C242.08 183.33, 272.46 149.17, 301.01 117.35 M217.12 217.44 C234.13 199.65, 253.64 180.58, 301.65 124.04 M218.2 217.06 C247.06 185.97, 275.26 154.62, 299.05 123.83 M222.45 217.46 C253.31 184.83, 283.08 149.81, 299.7 130.41 M223.61 218.3 C251 185.41, 279.39 154.26, 300.18 130.42 M228.32 219.77 C249.61 194.1, 270.04 171.17, 301.51 135.16 M228.31 218.47 C253.18 189.84, 276.12 161.8, 300.11 137.34 M233.45 216.28 C251.81 200.21, 266.87 180.34, 301.16 140.7 M234.68 218.77 C256.82 194.45, 277.86 169.68, 300.27 141.94 M238.32 219.72 C263.17 194.45, 283.19 166.37, 298.6 147.99 M239.05 217.25 C254.33 202.08, 266.44 188.16, 299.61 149.12 M244.82 217.87 C257.24 205.45, 269.45 192.94, 299.04 153.47 M245.56 217.29 C267.3 193.31, 288.67 167.31, 299.36 155.53 M252.23 217.76 C267.94 198.49, 280.82 178.61, 299.79 159.5 M251.49 216.96 C265.42 201.43, 278.36 186.14, 300.1 160.13 M256.82 219.83 C273.03 197.67, 290.56 176.74, 299.15 166.8 M255.11 217.48 C269.25 201.31, 283.78 185.09, 299.89 165.96 M259.93 218.11 C276.13 200.92, 291.48 185.28, 301.74 173.37 M261.05 218.56 C269.47 206.43, 280.37 196.86, 299.99 173.21 M267.49 218.47 C276.28 205.33, 289.79 193.77, 300.14 178.73 M266.08 218.88 C278.8 203.89, 289.67 191.88, 299.66 178.67 M270.11 218.7 C279.29 209.3, 289.44 197.36, 300.24 186.78 M272.52 217.41 C282.1 206.31, 292.73 192.96, 299.9 184.85 M278.64 218.83 C284.05 208.92, 293.82 201.52, 302.1 190.3 M276.04 217.91 C284 210.59, 289.84 202.43, 299.52 191.69 M284.22 217.18 C289.57 210.54, 294.87 201.13, 298.81 197.35 M283.03 218.26 C289.22 209.39, 295.69 201.63, 300.3 197.17 M285.86 216.66 C292.69 211.43, 294.47 208.67, 299.89 204.24 M286.44 218.89 C289.64 214.25, 294.16 211.52, 299.65 203.48 M293.28 217.96 C294.54 215.16, 297.46 213.66, 299.41 209.56 M292.44 218.76 C295.53 215.76, 297.59 212.7, 300.42 209.41" stroke="#ced4da" stroke-width="0.5" fill="none"></path><path d="M-0.73 0.49 C90.56 0.94, 181.2 1.93, 298.08 0.93 M0.28 -0.36 C110.62 0.22, 221.97 0.02, 297.64 0.07 M296.46 -0.54 C298.75 62.04, 300.08 127.58, 297.45 215.58 M297.48 -0.19 C298.63 47.64, 297.25 94.49, 298.7 216.65 M298.58 217.61 C222.35 217.72, 147.8 215.99, -1.18 217.81 M298.08 217.71 C211.41 216.74, 126.03 217.68, -0.29 217.02 M1.68 216.66 C2.65 141.07, -0.1 63.25, 0.77 0.77 M-0.53 216.16 C0.05 148.69, 0.62 80.81, -0.11 0.34" stroke="#000000" stroke-width="1" fill="none"></path></g><g transform="translate(692 16.5) rotate(0 45.5 36)"><text x="45.5" y="17" font-family="Virgil, Segoe UI Emoji" font-size="19.669966996699667px" fill="#000000" text-anchor="middle" style="white-space: pre;" direction="ltr">Back End</text><text x="45.5" y="41" font-family="Virgil, Segoe UI Emoji" font-size="19.669966996699667px" fill="#000000" text-anchor="middle" style="white-space: pre;" direction="ltr">(Node)</text><text x="45.5" y="65" font-family="Virgil, Segoe UI Emoji" font-size="19.669966996699667px" fill="#000000" text-anchor="middle" style="white-space: pre;" direction="ltr"></text></g><g stroke-linecap="round" transform="translate(527.1037068238472 91.05700809858178) rotate(89.86613159987301 95 27)"><path d="M0 0 C0 0, 0 0, 0 0 M0 0 C0 0, 0 0, 0 0 M0.35 6.18 C0.72 5.61, 1.88 3.22, 5.76 -0.11 M-0.49 6.18 C1.31 4.72, 3.18 2.92, 5 0.47 M1.57 13.18 C4.25 7.82, 5.07 5.45, 11.21 0.65 M-0.09 12.08 C4.38 7.55, 6.62 3.74, 11.17 0.52 M-1.95 18 C3.92 13.92, 5.86 9.14, 16.33 0.44 M-0.74 18.42 C4.77 13.31, 10.98 6.52, 15.34 0.03 M0.89 25.48 C4.76 18.73, 10.24 13.25, 21.4 -1.04 M0.12 23.21 C5.35 18.57, 9.73 11.33, 21.17 -0.52 M1.21 29.24 C4.88 25.91, 11.89 17.57, 27.39 1.92 M0.82 29.63 C5.71 24.39, 11.23 15.71, 26.12 -0.61 M0.11 37.48 C11.75 25.14, 20.74 12.57, 33.76 0.25 M-0.64 37.46 C6.55 29.4, 12.91 21.38, 32.43 -0.18 M-0.76 42.33 C7.06 33.44, 15.28 22.01, 35.6 1.15 M-0.22 43.44 C8.03 33.59, 17.41 22.73, 37.44 -0.34 M1.01 50.89 C12.9 35.06, 22.42 21.47, 41.03 0.84 M-0.36 48.64 C16.88 30.07, 32.25 11.83, 43.22 0.7 M1.38 54.82 C19.1 32.41, 38.19 11.14, 48.16 -0.56 M0.98 55.22 C18.87 32.22, 37.57 11.33, 46.76 0.71 M4.68 54.35 C20.53 39.61, 32.81 24.28, 54.53 1.7 M6.38 54.85 C15.71 41.04, 27.67 28.18, 53.58 -0.47 M10.05 52.96 C26.07 36.59, 42.82 19.77, 58.02 -0.1 M11.62 54.58 C27.43 36.39, 44.07 15.96, 57.92 0.21 M15.35 53.84 C34.77 35.91, 50.55 14.61, 62.3 -1.43 M16.79 53.62 C34.92 34.66, 52.59 13.67, 64.41 -0.94 M23.44 53.96 C39.54 35.21, 54.01 16.67, 69.8 1.39 M20.83 54.68 C38.56 35.75, 55.11 17.16, 68.18 0.74 M25.7 54.9 C46.44 31.78, 64.66 13.9, 75.09 -0.05 M26.22 55.09 C45.51 32.22, 62.82 11.9, 74.55 0.39 M32.91 55.69 C47.54 37.5, 57.99 21.37, 77.87 0.59 M32.1 54.92 C50.88 33.81, 67.29 14.93, 79.17 0.71 M38.72 55.56 C50.66 36.82, 63.6 22.45, 84.38 1.16 M36.98 54.01 C54.99 35.91, 69.4 17.45, 85.69 0.01 M42.57 54.83 C59.57 32.55, 80.17 12.41, 88.33 1.92 M41.83 54.11 C53.81 41.4, 65.76 30.03, 89.91 -0.62 M49.12 53.64 C59.05 42.38, 67.04 29.6, 96.36 -1.74 M48.79 53.95 C60.96 38.85, 74.32 25.06, 95.43 -1.26 M55.23 52.84 C67.33 38.84, 77.95 24.6, 100.97 -0.39 M54.29 55.37 C67.44 38.23, 81.17 23.45, 99.81 -0.09 M56.68 53.49 C76.08 37.25, 88.16 17.48, 105.94 -1.87 M59.09 55.12 C73.33 36.75, 89.6 19.68, 106.25 -1.24 M62.43 53.96 C82.86 32.01, 101.69 11.37, 111.3 -0.34 M64.67 55.22 C78.85 35.13, 96.01 18.48, 111.69 0.28 M70.85 52.98 C80.99 39.06, 94.94 24.81, 118.09 1.16 M68.69 54.32 C80.32 43.62, 90.74 30.5, 115.87 -0.6 M74.43 55.19 C89.86 36.94, 105.78 21.11, 120.58 1.86 M74.02 54.52 C87.8 37.36, 103.36 21.9, 122.74 0.35 M80.83 54.01 C93.95 38.37, 110.39 20.75, 128.49 0.27 M78.82 54.47 C97.28 34.72, 113.46 15.76, 126.88 1.04 M86.2 52.35 C98.95 41.35, 110.66 25.39, 133.76 1.76 M86.29 53.48 C101.93 33.91, 118.84 15.97, 133.54 0.83 M92.21 53.53 C107.15 36.5, 126.99 14.11, 137.53 -0.59 M90.76 54.59 C107.11 35.99, 125.29 16.09, 137.78 0.71 M95.44 54.02 C115.28 34.95, 133.48 12.02, 141.52 0.73 M95.35 54.69 C114.32 31.94, 132.52 9.91, 143.08 0.3 M100.3 54.27 C117.89 36.21, 135.04 14.47, 147 0.57 M100.16 55.58 C114.95 38.35, 128.64 22.93, 148.6 0.03 M108.55 55.54 C121.13 35.51, 134.97 18.4, 154.25 -0.13 M105.91 54.09 C122.8 36.08, 140.43 16.99, 153.73 0.18 M112.12 54.72 C124.01 38.93, 138.6 24.25, 157.42 -1.48 M112.09 55.17 C122.57 41.61, 131.38 29.87, 159.3 1 M118.66 53.07 C136.2 34.13, 153.24 10.07, 164.07 -1.89 M116.61 53.97 C131.57 37.66, 146.9 22.28, 164.23 -0.23 M120.4 55.16 C138.48 35.97, 154.75 20.48, 170 -1.18 M121.98 54.97 C135.02 37.69, 150.24 22.45, 168.69 0.95 M127.63 53.54 C144.22 33.06, 160.9 13.19, 174.8 -1.86 M126.96 54 C144.3 34.36, 160.9 15.76, 174.75 -0.78 M133.6 55.67 C142.42 41.93, 153.63 34.24, 180.7 -0.22 M132.69 55.44 C143.84 40.19, 156.38 26.89, 179.51 -0.4 M140.02 52.64 C154.38 35.68, 173.05 15.68, 184.02 0.41 M138.37 54.2 C154.48 36.08, 170.28 16.46, 185.82 0.54 M141.91 54.08 C160.79 35.71, 179.45 13.03, 190.15 -1.47 M143.43 54.91 C158.92 36.85, 173.75 19.67, 191.36 0.01 M149.11 52.87 C163.92 38.23, 180.08 20.47, 191.07 7.99 M149.14 53.94 C163.17 36.97, 178.91 19.86, 189.46 7.4 M155.21 56.03 C162.37 43.84, 170.3 34.24, 190.61 13.78 M154.82 54.56 C166.01 41.14, 176.6 27.99, 190.59 12.44 M158.93 53.49 C167.21 44.49, 172.3 35.03, 192.27 17.39 M159.46 54.96 C166.95 44.91, 174.16 38.3, 191.32 19 M165.12 52.92 C170.99 47.4, 180.46 39.57, 189.97 24.62 M163.88 53.43 C173.11 45.13, 181.4 34.59, 189.4 24.08 M170.18 52.55 C175.52 44.64, 184.5 39.45, 190.9 29.14 M170.4 54.36 C178.32 45.28, 186.55 37.14, 189.7 29.67 M174.98 55.95 C180.03 46.38, 185.75 39.26, 190.4 37.27 M175 53.42 C179.72 50.44, 183.08 46.46, 191.41 36.84 M181.32 53.91 C183.48 49.92, 185.82 47.18, 190.61 43.55 M180.29 54.44 C181.89 52.46, 184.88 49.22, 190.07 43.55 M185.92 54.25 C187.41 52.18, 189.58 50.12, 190.87 48.67 M186.32 54.32 C187.35 52.87, 187.7 51.75, 190.3 49.11" stroke="#868e96" stroke-width="0.5" fill="none"></path><path d="M-0.61 -1.35 C60.4 2.87, 122.09 -0.16, 191.16 1.1 M-0.58 0.13 C58.91 0.8, 119.15 0.82, 189.21 -0.7 M190.93 -0.68 C190.87 17.44, 189.6 37.54, 188 55.65 M190.58 -0.91 C190.37 11.28, 190.69 23.05, 190.71 53.61 M190.99 52.51 C135.43 55.22, 78.57 55.84, 0.04 55.1 M190.29 54.2 C117.81 52.99, 45.55 54.73, -0.77 53.21 M1.47 54.44 C0.27 43.44, 2.09 29.7, -0.95 1.99 M0.87 53.9 C0.51 43.16, 0.34 30.99, -0.88 -0.34" stroke="#000000" stroke-width="1" fill="none"></path></g><g transform="translate(599.1037068238472 106.05700809858178) rotate(89.86613159987301 23 12)"><text x="23" y="17" font-family="Virgil, Segoe UI Emoji" font-size="19.66996699669967px" fill="#000000" text-anchor="middle" style="white-space: pre;" direction="ltr">Grpc</text></g><g stroke-linecap="round"><g transform="translate(311.269406392694 115.48450310186752) rotate(0 138.8305798543803 -0.10867644946901578)"><path d="M0.09 1.15 C46.23 1.12, 230.71 0.83, 276.86 0.53 M-1.32 0.71 C45.17 0.25, 232.21 -1.3, 278.98 -1.37" stroke="#000000" stroke-width="1" fill="none"></path></g><g transform="translate(311.269406392694 115.48450310186752) rotate(0 138.8305798543803 -0.10867644946901578)"><path d="M252.77 7.17 C260.05 4.15, 266.63 2.52, 278.25 0.46 M249.98 8.17 C260.43 6.53, 268.45 1.42, 278.56 -2.29" stroke="#000000" stroke-width="1" fill="none"></path></g><g transform="translate(311.269406392694 115.48450310186752) rotate(0 138.8305798543803 -0.10867644946901578)"><path d="M252.65 -13.35 C260.09 -10.13, 266.71 -5.53, 278.25 0.46 M249.87 -12.35 C260.41 -7.3, 268.46 -5.72, 278.56 -2.29" stroke="#000000" stroke-width="1" fill="none"></path></g></g><g transform="translate(383.75 83.75) rotate(0 63.5 12.5)"><text x="0" y="18" font-family="Virgil, Segoe UI Emoji" font-size="20px" fill="#000000" text-anchor="start" style="white-space: pre;" direction="ltr">Msg Request</text></g><g stroke-linecap="round" transform="translate(780.75 97.75) rotate(0 42.5 25)"><path d="M0.29 1.35 C34.72 -0.11, 66.4 2.63, 83.58 -1.53 M0.75 -0.85 C23.35 0.77, 48.09 -0.48, 85.1 -0.02 M85.12 -0.31 C86.85 11.38, 86.71 25.55, 83.31 51.55 M85.31 -0.35 C85.11 11.2, 85.65 24.51, 84.6 50.8 M86.08 49.75 C66.99 50.32, 48.27 48.07, 0.81 51.01 M84.29 49.78 C51.93 50.1, 17.3 48.77, 0.13 50.22 M1.92 51.92 C-0.57 33.84, 0.17 17.77, -1.22 -1.14 M-0.67 49.66 C-0.03 32.64, -0.73 14.26, 0.46 0.98" stroke="#000000" stroke-width="1" fill="none"></path></g><g transform="translate(785.75 102.75) rotate(0 37.5 20)"><text x="37.5" y="14" font-family="Virgil, Segoe UI Emoji" font-size="16px" fill="#000000" text-anchor="middle" style="white-space: pre;" direction="ltr">Greeter </text><text x="37.5" y="34" font-family="Virgil, Segoe UI Emoji" font-size="16px" fill="#000000" text-anchor="middle" style="white-space: pre;" direction="ltr">Service</text></g></svg>