<svg version="1.1" xmlns="http://www.w3.org/2000/svg" viewBox="0 0 1030 306.5" width="1030" height="306.5">
  <!-- svg-source:excalidraw -->
  
  <defs>
    <style>
      @font-face {
        font-family: "Virgil";
        src: url("https://excalidraw.com/Virgil.woff2");
      }
      @font-face {
        font-family: "Cascadia";
        src: url("https://excalidraw.com/Cascadia.woff2");
      }
    </style>
  </defs>
  <rect x="0" y="0" width="1030" height="306.5" fill="#ffffff"></rect><g stroke-linecap="round"><g transform="translate(646.0195978722502 213.02687239345482) rotate(0 -141.12839783681454 2.30372888749082)"><path d="M0.76 -1.11 C-46.21 -0.25, -235.08 4.8, -282.39 5.72 M-0.3 0.92 C-47.33 1.4, -235.75 3.28, -283.01 4.03" stroke="#000000" stroke-width="1" fill="none"></path></g><g transform="translate(646.0195978722502 213.02687239345482) rotate(0 -141.12839783681454 2.30372888749082)"><path d="M-256.81 -5.56 C-260.6 -3.89, -269.92 -0.83, -281.19 5.94 M-254.98 -7.39 C-265.38 -1.87, -276.81 1.93, -283.11 4.99" stroke="#000000" stroke-width="1" fill="none"></path></g><g transform="translate(646.0195978722502 213.02687239345482) rotate(0 -141.12839783681454 2.30372888749082)"><path d="M-256.55 14.96 C-260.5 11.45, -269.89 9.33, -281.19 5.94 M-254.72 13.13 C-265.03 11, -276.56 7.15, -283.11 4.99" stroke="#000000" stroke-width="1" fill="none"></path></g></g><g transform="translate(456.75 215.75) rotate(0 48 12.5)"><text x="0" y="18" font-family="Virgil, Segoe UI Emoji" font-size="20px" fill="#000000" text-anchor="start" style="white-space: pre;" direction="ltr">Msg Reply</text></g><g stroke-linecap="round" transform="translate(66.75 58.75) rotate(0 151.5 107)"><path d="M0 0 C0 0, 0 0, 0 0 M0 0 C0 0, 0 0, 0 0 M-0.82 6.75 C1.37 5.25, 2.62 3.55, 4.78 0.01 M-0.26 6.11 C1.62 4.31, 3.27 2.55, 4.65 0.71 M1.31 12.78 C3.7 7.95, 7.07 3.38, 11.31 -1.31 M0.82 11.67 C3.43 8.07, 7.59 2.8, 10.93 -0.42 M1.36 20.04 C1.51 12.82, 7.75 11.79, 16.58 1.49 M0.27 18.98 C4.06 13.16, 8.54 8.91, 15.88 0.79 M-0.47 22.81 C5.98 16.64, 12.01 8.12, 19.52 -0.56 M0.93 23.12 C5.23 19.7, 9.32 15.14, 21.86 0.54 M-1.57 28.69 C6.11 20.76, 13.71 13, 27.68 0.67 M-0.64 31.01 C8.54 20.77, 15.27 13.48, 25.49 -0.45 M-1.41 35.68 C10.5 25, 18.28 15.88, 30.54 0.27 M-1.02 36.77 C6.43 28.72, 13.36 20.22, 31.37 0.58 M2.04 41.42 C8.75 29.12, 20.42 19.63, 35.77 0.67 M-0.36 42.53 C9.92 31.61, 18.82 19.32, 36.3 1.08 M-0.38 48.17 C13.67 34.39, 23.68 21.45, 43.63 0.43 M-0.95 49.33 C10.05 36.92, 20.79 24.42, 41.87 -0.3 M0.77 56.31 C15.46 36.26, 29.67 21.19, 47.02 -1.01 M0.69 54.42 C12.89 41, 24.47 25.4, 46.6 1.02 M1.6 61.06 C12.2 47.81, 22.28 34.04, 53.99 1.37 M0.02 61.96 C15.73 41.86, 30.69 24.16, 52.59 0.07 M-1.33 66.05 C14.33 49.36, 28.24 33.82, 59.7 -0.99 M0.36 68.34 C21.13 44.64, 41.87 21.17, 57.61 1.07 M0.32 72.22 C18.91 51.66, 35.37 32.88, 64.97 -1.59 M0.36 73.1 C12.59 57.41, 25.98 43.49, 63.74 -0.07 M-2.1 78.95 C22.32 50.87, 47.92 26.44, 68.22 1.99 M-0.62 79.77 C14.95 62.39, 28.73 46.52, 69.49 0.99 M-0.33 85.42 C28.38 52.07, 60.23 16.78, 76.02 0.74 M-0.53 85.26 C14.43 67.27, 31.1 50.07, 74.43 -0.43 M-1.24 91.46 C21.67 68.07, 42.92 44.2, 79.08 -0.94 M-0.51 90.5 C24.91 60.03, 52.09 30.54, 79.33 0.62 M-0.97 99.02 C32.2 64.87, 58.45 28.82, 86.74 -0.57 M-0.94 97.78 C27.15 63.6, 56.18 31.39, 84.74 -0.66 M-1.66 105.16 C20.5 82.83, 37.13 58.34, 90.96 -0.77 M0 103.65 C18.33 83.82, 36.61 62.26, 89.17 -0.18 M-0.14 111.04 C23.03 81.08, 47.51 53.7, 96.84 -0.58 M-0.29 109.79 C20.78 83.34, 44.91 57.77, 95.67 -0.34 M1.86 115.47 C30.15 83.15, 59.23 48.99, 102.61 1.37 M1.16 116.38 C32.21 78.21, 62.33 43.27, 99.98 0.57 M1.77 123.61 C30.65 85.23, 60.78 52.58, 106.15 -0.46 M1 122.73 C38.64 76.5, 77.46 32.7, 107.16 -0.98 M-2.01 128.48 C29.15 92.77, 59.15 58.44, 112.95 -1.75 M-0.48 128.67 C42.36 78.24, 87.27 28.62, 111.68 0.86 M1.17 131.98 C38.73 91.55, 77.12 48.98, 117.98 1.22 M0.07 133.38 C42.09 85.55, 85.95 35.4, 115.43 0.71 M1.5 141.87 C29.8 106, 62.64 69.62, 120.99 0.49 M0.5 140.31 C39.45 95.65, 78.1 50.48, 121.1 0.78 M-1.42 145.28 C43.61 91.42, 91.69 42.85, 125.74 1.52 M1.04 146.55 C41.42 98.52, 83.47 50.85, 127.6 -0.17 M1.21 153.35 C49.98 96.28, 101.26 37.87, 133.75 0.53 M0.46 151.52 C31.41 116.28, 61.13 81.2, 132.08 0.41 M-1.8 159.22 C31.84 120.32, 65.65 84.43, 137.05 1.5 M0.21 157.99 C39.3 112.12, 80.37 65.35, 137.75 -0.13 M-0.66 165.97 C48.59 109.63, 98.42 54.03, 142.96 0.83 M-0.35 165.28 C35.77 122.63, 71.42 83.2, 143.19 0.08 M1.27 169.56 C49.52 112.7, 99.55 58.02, 148.06 -0.02 M-0.84 170.84 C52.86 109.43, 105.37 49.27, 147.73 -0.5 M0.86 176.84 C43.32 127.32, 86.36 77.53, 155.23 1.52 M0.56 175.87 C43.74 123.57, 89.82 72.03, 154.18 -0.04 M1.12 182.96 C48.97 125.56, 98.93 69.58, 159.28 0.49 M-0.31 183.12 C61.52 113.27, 122.23 40.49, 158.02 -0.53 M-0.13 189.07 C41.04 139.88, 83.21 92.36, 163.37 1.06 M-0.98 188.87 C50.01 129.05, 100.85 71.48, 163.92 0.29 M-1.12 196.45 C55.12 131.81, 107.84 69, 167.94 1.3 M-0.09 194.13 C47.75 138.5, 96.95 81.98, 169.85 0.43 M-0.5 201.54 C38.77 155.99, 76.89 110.15, 173.8 -0.45 M0.31 200.71 C40.11 155.48, 80.92 107.69, 175.31 -0.24 M1.84 205.74 C70.81 128.4, 141.93 47.88, 181.07 -0.79 M0.46 206.46 C61.97 134.83, 125.28 62.89, 180.35 -0.1 M0.79 213.74 C40.27 166.07, 80.94 122.29, 186.14 -1.47 M0.32 213.47 C39.95 168.04, 79.88 121.69, 185.5 0.32 M3.43 215.26 C53.08 158.4, 101.57 102.78, 189.84 -1.12 M3.08 217.09 C52.9 159.68, 102.04 102.97, 190.73 0.25 M7.27 216.87 C77.91 137.48, 148.28 58.7, 197.2 0.76 M7.56 216.32 C47.82 170.55, 87.87 123.99, 195.63 -0.72 M14.49 215.95 C83.14 132.28, 155.47 50.56, 201.2 -0.08 M13.33 216.43 C78.54 141.22, 144.25 65.11, 201.28 0.73 M18.59 215.61 C77.98 150.55, 135.96 81.74, 207.07 -1.62 M17.98 216.69 C91.8 132.73, 163.76 49.17, 207.46 0.11 M24.59 217.76 C72.94 159.87, 121.3 104.46, 212.91 0.54 M23.89 216.81 C81.84 148.8, 142.34 79.2, 211.47 0.67 M28.05 216.06 C96.4 136.1, 166.52 57.65, 218.87 0.09 M29.39 215.97 C82.66 152.06, 138.04 89.06, 217.43 0.28 M34.95 216.16 C95.37 145.95, 157.79 76.84, 222.86 0.3 M33.65 216.26 C87.21 155.88, 140.25 96.17, 223 -0.55 M40.7 216.64 C104.87 141.17, 170.36 64.16, 226.77 0.89 M39.91 215.62 C100.57 147.81, 160.28 78.78, 228.72 0.31 M43.92 217.11 C99.6 153.87, 151.86 94.63, 232.08 0.2 M45.24 215.87 C116.16 134.85, 187.7 53.95, 233.76 -0.5 M49.63 217.24 C118.06 137.48, 184.97 58.43, 239.48 0.98 M49.86 215.62 C93.52 166.14, 137.5 115.17, 238.54 0.01 M55.93 215.88 C121.99 142.96, 185.7 67.76, 244.69 -0.35 M55.94 216.79 C116.98 145.84, 179.54 74.09, 243.83 0.29 M60.11 216.1 C102.84 168.08, 143.17 119.24, 249.64 -0.31 M61.81 216.01 C103.53 167.83, 146.14 118.13, 248.27 0.02 M66.49 215.22 C106.34 173.4, 144.56 125.71, 255.84 -0.57 M66.78 217.18 C120.18 155.43, 172.33 93.55, 254.03 -0.17 M71.44 215.93 C112.01 167.47, 152.69 120.08, 260.11 0.06 M71.44 216.86 C125.22 153.16, 179.77 91.15, 259.55 0.25 M77.21 216.27 C126.82 158.23, 174.68 100.55, 263.8 -1.24 M76.44 216.77 C148.57 134.34, 219.13 53.59, 264.35 -0.82 M83.02 214.78 C147.18 141.74, 212.82 65.86, 271.49 -0.27 M82.74 216.79 C124.28 166.97, 165.41 119.29, 270.84 -0.1 M86.79 215.54 C125.36 172.03, 166.14 123.78, 276.01 1.26 M87.38 216.85 C158.03 137.34, 225.92 58.79, 275.5 -0.53 M94.36 215.17 C146.18 154.31, 198.58 93.96, 281.41 0.78 M92.82 215.97 C137.06 164.68, 179.91 116.57, 281.32 -0.25 M97.04 216.99 C139.37 170.83, 179.34 122.54, 284.89 -0.07 M98.19 215.72 C137.94 171.49, 177.01 125.85, 285.89 0.35 M105.05 214.97 C146.26 167.77, 186.15 122.26, 290.67 0.66 M104.05 216.15 C164.45 148.02, 223.86 79.11, 290.87 0.59 M109.88 216.96 C180.2 136.59, 249.78 57.8, 298.05 1.22 M108.2 216.27 C159.63 158.65, 210.65 101.31, 297.63 0.01 M114.77 216.52 C151.68 170.57, 192.68 126.53, 303.15 1.27 M114.97 216.07 C170.18 150.28, 228.81 85.44, 301.6 0.28 M118.23 216.19 C163.43 167.38, 206.29 116.84, 306.14 3.2 M118.93 216.92 C176.43 149.96, 233.14 82.72, 305.56 1.97 M125.72 215.18 C166.64 168.2, 210.86 118.2, 306.58 8.16 M124.15 216.81 C165.07 169.99, 204.64 124.41, 306.09 8.01 M130.26 216.9 C177.69 163.54, 223.53 109.39, 304.3 13.64 M129.61 216.09 C184.99 150.71, 240.58 88.01, 305.12 13.58 M136.02 217.8 C196.39 148.82, 255.02 80.03, 305.9 21.63 M134.37 217.26 C181.63 158.94, 230.08 104.71, 305.73 20.21 M142.19 216.57 C180.55 175.02, 217.35 129.73, 305.47 28.33 M140.18 216.9 C184.56 166.85, 229.54 115.34, 305.51 27.19 M144.83 216.26 C192.77 158.97, 244.5 103.11, 305.54 31.67 M145.72 217 C197.92 153.39, 252.49 92.01, 304.95 32.64 M149.8 217.32 C207.18 149.62, 265.14 86.37, 306.81 39.44 M151.32 216.22 C204.83 154.23, 259.19 91.41, 305.29 39.63 M155.52 215.75 C207.63 154.77, 259.34 95.19, 306.96 43.05 M156.46 216.48 C188.93 179.09, 222.69 141.7, 305.88 44.79 M162.36 216.21 C195.99 177.28, 231.67 139.56, 306.47 52.61 M161.18 215.74 C214.26 156.49, 265.59 96.1, 305 51.54 M168.45 216.76 C198.47 176.83, 230.66 141.57, 304.18 56.57 M167.18 216.27 C221.09 155.55, 273.51 95.4, 305.8 56.89 M172.52 215.2 C208.31 175.76, 242.68 134.68, 306.85 64.29 M172.07 215.68 C211.97 168.6, 253.77 120.36, 305.02 62.85 M176.82 218.05 C224.95 160.36, 271.94 106.76, 307.36 68.76 M177.61 217.12 C213.6 175.94, 248.21 136.24, 304.45 68.69 M183.22 214.41 C229.67 159.09, 278.44 102.75, 307.15 75.98 M183.82 216.33 C230.86 161.41, 278.97 107.38, 306.74 75.42 M188.31 215.58 C226.14 176.1, 261.21 134.47, 306.5 80.06 M188.29 215.92 C230.66 165.89, 272.65 117.43, 306.33 80.72 M194.03 216.31 C220.95 185.74, 244.57 156.22, 305.52 87.8 M193.08 216.12 C216.47 187.36, 242.43 157.5, 305.94 88.25 M199.73 215.47 C224.85 186.07, 254.73 151.97, 307.6 91.87 M198.83 215.48 C231.78 178.57, 265.44 139.85, 305.79 92.57 M204.61 216.79 C234.65 180.53, 268.5 142.56, 306.65 99.82 M205.33 215.38 C225.98 190.88, 248.15 163.18, 305.12 99.98 M207.79 217.63 C243 175.81, 280.26 136.33, 304.95 103.57 M209.72 216.73 C247.81 172.18, 287.06 127.92, 306.06 105.93 M214.75 217.72 C237.16 192.43, 259.01 165.74, 305.2 112.13 M215.05 216.56 C236.24 194.3, 255.5 169.93, 305.82 111.61 M221.34 215.91 C254.55 177.84, 286.19 139.77, 304.29 117.16 M220.42 216.66 C245.63 187.85, 271.35 159.14, 304.63 117.33 M224.32 214.88 C251.59 184.59, 277.66 157.09, 304.64 125.92 M225.63 216.17 C246.49 193.07, 268.34 168.7, 305.16 123.42 M229.33 217.98 C250.3 195.13, 269.63 174.69, 305.45 130.29 M231.29 216.29 C252.05 191.49, 273.88 166.99, 305.92 131.08 M236.72 218.64 C260.5 186.61, 285.59 157.42, 304.56 136.25 M234.78 217.54 C261.17 187.79, 286.95 158.4, 305.21 135.77 M240.85 217.41 C263.62 190.29, 289.31 160.81, 306.43 140.69 M241.66 216.74 C257.72 195.57, 275.85 175.39, 305.3 141.82 M245.39 214.99 C261.5 199.37, 275.97 179.87, 304.01 148.83 M247.09 215.81 C268.5 192.11, 289.48 167.1, 304.32 147.83 M253.12 217.66 C265.01 203.84, 275.91 190.72, 306 155.26 M251.78 217.17 C270.96 193.97, 288.09 173.42, 305.74 153.51 M257.97 218.08 C273.98 194.62, 293.63 174.15, 304.15 160.96 M256.13 216.41 C273.92 197.59, 291.17 178.16, 305.74 160.58 M263.48 216.03 C279.3 198.32, 295.14 176.01, 307.07 166.75 M262.84 216.83 C272.08 205.68, 282.23 195.59, 305.16 166.15 M266.84 215.17 C278.18 205.82, 284.49 195.13, 304.27 174.1 M267.05 216.13 C280.64 200.38, 294.18 186.81, 305.68 173.32 M273.37 215.73 C285.15 203.21, 297.51 189.45, 304 178.55 M272.96 217 C286.24 202.35, 297.33 188.65, 305.75 178.57 M276.54 215.37 C289.75 203.04, 298.04 190.37, 304.48 186.8 M277.95 215.77 C285.09 208.54, 290.4 202.85, 305.98 184.64 M284.41 217.82 C288.49 207.98, 294.88 203.92, 305.26 189.65 M283.21 217.03 C291.05 205.85, 300.11 196.89, 304.59 191.41 M287.71 217.7 C295 211.69, 299.42 204.19, 304.98 195.51 M287.86 216.24 C294.08 211.9, 298.72 205.26, 305.37 197.23 M294.3 217.08 C297.63 212.21, 300.26 209.13, 305.47 203.21 M293.71 216.33 C298.41 212.2, 302.17 208.04, 305.73 203.57 M300.17 215.85 C302.12 213.76, 303.9 212.31, 305.36 210.44 M299.11 216.5 C301.32 214.55, 304.04 211.91, 305.11 210.11" stroke="#ced4da" stroke-width="0.5" fill="none"></path><path d="M1.01 -0.12 C109.42 -0.97, 221.41 0.26, 304.06 -1.34 M0.1 0.6 C82.03 2.28, 165.22 2.49, 303.44 -0.02 M304.6 -0.21 C304 86.03, 303.6 168.81, 304.73 215.31 M302.23 0 C304.37 73.16, 304.11 146.13, 302.81 213.37 M304.27 214.67 C234.35 213.19, 164.51 213.29, -0.57 212.99 M302.88 213.71 C206.03 212.8, 109.76 213.39, -0.47 214.11 M1.28 215.54 C-1.48 155.58, -0.32 94.03, -0.81 0.47 M0.44 213.99 C-0.59 160.55, -0.19 108.07, -0.46 0.84" stroke="#000000" stroke-width="1" fill="none"></path></g><g transform="translate(169.75 63.75) rotate(0 48.5 25)"><text x="48.5" y="18" font-family="Virgil, Segoe UI Emoji" font-size="20px" fill="#000000" text-anchor="middle" style="white-space: pre;" direction="ltr">Front End</text><text x="48.5" y="43" font-family="Virgil, Segoe UI Emoji" font-size="20px" fill="#000000" text-anchor="middle" style="white-space: pre;" direction="ltr">(Go)</text></g><g stroke-linecap="round" transform="translate(242.75 134.75) rotate(270 92 27)"><path d="M0 0 C0 0, 0 0, 0 0 M0 0 C0 0, 0 0, 0 0 M0.16 6.66 C1.68 4.67, 2.52 2.64, 5.3 1.15 M-0.1 6.38 C1.55 4.65, 2.97 2.68, 5.04 -0.01 M0.31 11.73 C3.48 7.24, 7.07 3.42, 11.99 1.32 M-0.51 12.69 C2.37 8.82, 6.07 5.1, 9.96 -0.65 M-2.04 16.81 C6.01 13.41, 11.42 7.15, 15.01 2.29 M0 17.97 C4.26 13.8, 8.27 9.38, 15.76 1.1 M-0.44 24.14 C4.41 17.21, 9.29 11.45, 19.29 0.4 M1.06 24.7 C8.38 16.44, 15.96 7.35, 20.8 -0.83 M-0.78 28.67 C10.78 16.86, 22.44 7.21, 26.09 -1.69 M0.57 29.67 C8.5 21.1, 16.79 9.64, 26.25 0.74 M1.01 36.26 C10.57 25.54, 21.03 11.65, 30.19 1.18 M-0.24 36.54 C8.49 26.33, 16.35 18.22, 31.65 -1.05 M-1.77 40.64 C9.1 31.81, 18.09 20.74, 36.24 1.82 M0.4 42.82 C9.59 30.44, 19.62 20.51, 36.83 -0.48 M0.73 48.44 C6.84 40.22, 18.28 29.82, 41.29 1.38 M0.25 48.81 C15.84 31.02, 28.86 14.95, 42.56 -0.77 M0.74 52.61 C12.77 39.48, 24.31 24.55, 46.78 2.15 M0.96 54.88 C9.57 42.49, 18.56 33.08, 46.69 0.67 M6.8 54.46 C20.17 36.39, 36.91 20.5, 53.01 0.26 M6.2 53.43 C23.77 32.24, 41.71 12.11, 52.71 0.77 M11.18 54.25 C28.9 34.98, 49.66 11.21, 59.18 -1.52 M11.16 55.28 C23.74 40.34, 35.51 25.64, 57.95 -0.5 M16.88 53.53 C30.36 38.31, 47.67 18.44, 61.86 -1.06 M15.69 53.96 C33.65 34.61, 51.73 13.57, 64.18 0.41 M21.05 53.26 C40.48 36.64, 54.94 17.98, 67.02 -0.11 M21.84 53.66 C30.71 43.58, 41.49 33.34, 69.7 -0.65 M25.46 54.5 C41.56 37.41, 55.4 24.56, 72.5 0.44 M26.45 53.8 C42.66 37.53, 56.18 20.95, 74.01 -0.99 M32.51 55.16 C49.77 36.28, 64.76 15.92, 80.03 1.33 M31.29 53.68 C48.68 36.22, 64.89 17.99, 79.92 -0.36 M39.75 54.8 C45.74 42.01, 58.84 31.47, 85.71 1.64 M37.71 53.11 C56.04 33.67, 72.6 13.77, 84.17 -0.45 M43.85 55.33 C53.71 38.79, 67.95 25.86, 88.03 -0.4 M42.73 55.03 C54.95 40.45, 65.73 26.8, 89.56 -0.14 M47.1 53.77 C64.83 33.89, 84.54 13.31, 94.38 1.29 M47.68 54.12 C67.03 34.19, 83.87 13.38, 95.57 -0.97 M53.45 55.02 C65.06 40.47, 79.03 28.02, 101 1.41 M54.32 53.46 C65.33 39.55, 78.62 24.19, 100.49 -0.46 M58.3 53.35 C75.06 35.12, 92.24 14.57, 107.53 0.02 M58.82 53.88 C74.62 35.56, 90.62 17.04, 106.05 0.52 M63.84 53.36 C74.52 41.77, 88.01 27.46, 113.01 -0.69 M63.16 54.82 C83.65 33.27, 101.57 12.48, 111.54 0.31 M70.27 55.09 C82.22 43.08, 93.64 29.38, 117.67 1.09 M68.52 55.24 C81.79 40.6, 92.87 26.99, 115.76 -0.09 M73.68 55.37 C92.27 34.52, 106.22 16.62, 122.28 -0.24 M75.28 54.98 C91.74 34.97, 107.46 16.12, 122.45 -0.18 M78.05 52.69 C100.38 34.44, 115.97 13.47, 127.38 -0.62 M79.11 55.38 C97.75 33.91, 115.92 12.54, 127.7 0.91 M85.73 55.9 C99.17 40.43, 111.8 25.36, 131.15 -0.92 M85.65 53.89 C101.4 34.93, 118.31 16.4, 131.91 -0.2 M89.48 52.98 C103.55 40.62, 114.68 27.76, 137.4 1.89 M90.55 54.76 C106.22 37.38, 120.71 19.56, 137.91 -0.48 M94.91 55.74 C113.68 36, 129.23 16.6, 142.08 -0.55 M96.18 53.58 C114.62 34.08, 131.21 13.8, 143.56 0.06 M100.53 52.64 C109.37 45.68, 119.27 32.87, 149.27 0.76 M101.7 53.95 C117.16 36.99, 131.2 18.83, 147.95 1.07 M108.23 53.5 C119.91 39.42, 131.29 29.37, 153.67 0.94 M105.72 54.1 C125.01 33.78, 143.14 12.89, 153.96 0.44 M111.28 54.25 C123.27 41.82, 136.61 26.29, 160.62 1.99 M112.39 55.53 C121.22 41.95, 131.5 29.75, 158.39 0.95 M116.85 53.69 C130.09 39.69, 143.64 23.76, 164.61 1.5 M118.05 53.61 C137.28 33.43, 154.48 11.92, 164.61 -1.13 M121.95 54.25 C139.58 31.33, 157.42 13.3, 169.24 1.46 M121.36 54.2 C133.96 40.47, 147.79 26.63, 168.67 0.61 M128.03 54.7 C142.46 35.67, 158.06 17.28, 173.76 0.95 M127.9 54.29 C137.05 42.73, 147.37 32, 175.94 -0.68 M132.88 54.95 C144.09 43.46, 153.4 30.85, 181.03 0.93 M132.31 54.66 C147.66 38.31, 162.39 20.74, 179.22 -0.45 M137.19 52.77 C151.56 39.75, 166.85 20.08, 183.41 1.73 M138.92 54.42 C148.3 42.78, 158.79 30.83, 184.7 0.6 M144.53 52.56 C152.83 43.24, 163.25 28.77, 184.1 6.82 M143.87 53.73 C151.21 44.33, 161.2 33.59, 185.48 6.16 M147.84 54.05 C156.96 46.56, 166.11 37.31, 183.47 13.98 M149.71 54.32 C158.81 43.52, 167.19 31.91, 185.99 13.38 M153.48 53.13 C164.56 42.09, 175.27 29.4, 185.93 19.13 M153.59 54.24 C160.97 45.01, 169.75 37.13, 185.03 18.56 M159.64 54.53 C163.72 47.16, 169.91 40.87, 186.34 24.57 M159.81 54.38 C167.86 44.26, 177.42 35.16, 184.27 25.26 M164.44 52.61 C167.31 49.29, 174.38 45.05, 185.37 31.96 M163.99 55.14 C171.29 46.61, 176.11 41.24, 185.7 31.16 M168.36 52.09 C174.05 48.67, 179.89 45.73, 184.67 39.32 M169.68 53.04 C173.6 49.48, 178.18 45.6, 185.03 36.96 M174.54 53.21 C178.12 51.74, 180.33 49.2, 184.91 42.68 M174.71 53.63 C176.85 52.62, 180.18 48.87, 185.53 43.55 M180.65 54.91 C182.17 52.35, 182.57 51.91, 185.04 49 M180.24 55.03 C181.68 53.25, 183.51 51.69, 184.86 49.48" stroke="#868e96" stroke-width="0.5" fill="none"></path><path d="M-0.85 0.21 C66.41 2.06, 130.62 -1.69, 183.45 -0.05 M-0.84 0.68 C40.18 -0.56, 81.15 -1.55, 184.98 -0.06 M185.27 0.9 C185.31 16.32, 186.47 37.95, 184.86 55.75 M183.7 -0.28 C182.92 15.39, 183.31 31.62, 183.28 53.24 M184.55 54.95 C140.73 55.91, 97.74 53.45, 0.38 52.13 M183.53 53.61 C136.45 53.68, 88.19 53.42, -0.23 54.12 M-1.42 54.92 C-0.5 36.61, -1.32 23.23, -1.08 0.46 M-0.18 53.09 C0 39.49, -0.8 27.35, 0.63 0.24" stroke="#000000" stroke-width="1" fill="none"></path></g><g transform="translate(311.75 149.25) rotate(270 23 12.5)"><text x="23" y="18" font-family="Virgil, Segoe UI Emoji" font-size="20px" fill="#000000" text-anchor="middle" style="white-space: pre;" direction="ltr">Grpc</text></g><g stroke-linecap="round" transform="translate(645.25 60.25) rotate(0 149 108.5)"><path d="M0 0 C0 0, 0 0, 0 0 M0 0 C0 0, 0 0, 0 0 M0.16 6.38 C1.31 3.95, 3.63 3.01, 5.31 0.37 M-0.23 6.66 C0.57 5.37, 2.15 3.28, 5 0.65 M0.4 10.94 C4.43 6.61, 8.74 5.07, 10.2 1.33 M-0.4 12.07 C3.2 8.5, 4.9 5.21, 10.95 0.56 M0.79 19.7 C7 12.85, 11.4 6.76, 14.83 1.12 M0.23 18.6 C5.7 12.55, 11.16 6.44, 15.16 -0.04 M-1.01 23.22 C3.58 17.87, 8.32 13.12, 22.52 1.25 M0.91 25.01 C4.96 19.64, 8.17 13.35, 22.22 -0.85 M0.16 28.57 C7.07 24.75, 11.01 16.03, 26.86 -1.01 M-0.37 31.21 C8.33 19.3, 18.34 9.85, 26.73 -0.28 M-0.85 38.24 C5.88 28.47, 13.23 20.51, 31.13 -1.64 M-0.21 35.98 C8.5 26.99, 18.06 14.68, 31.54 0.85 M-0.23 42.8 C8.43 32.93, 17.89 23.73, 36.28 -0.73 M-0.54 41.86 C10.51 30.5, 22.1 16.21, 35.9 0.13 M-1.84 49.97 C11.98 36.7, 20.85 24.76, 43.38 -1.79 M0.82 48.01 C13.59 32.07, 28.84 14.86, 42.13 0.11 M0.57 54.07 C17.95 32.75, 35.99 14.87, 45.62 1.07 M0.09 53.6 C12.49 39.68, 26.07 23.8, 47.75 1.02 M-0.6 60.8 C16.8 43.77, 32.03 24, 54.85 -0.16 M-0.31 60.42 C20.52 37.16, 41.88 13.42, 54.06 -0.71 M-1 68.72 C14.91 50.51, 28.08 34.24, 57.53 1.4 M0.18 68.28 C22.31 41.04, 45.92 12.71, 58.31 0.28 M-0.99 74.24 C17.83 52.69, 31.35 34.09, 65.26 0.22 M-0.31 73.85 C20.43 50.57, 40.58 28.38, 64.32 -1.2 M1.58 80.67 C18.64 59.66, 36.57 35.57, 66.78 -0.85 M-0.69 79.57 C23.58 54.09, 47.02 25.72, 68.57 -0.15 M1.27 83.66 C26.25 58.69, 46.37 31.2, 74.46 -1.84 M1.05 85 C24.8 57.59, 48.27 29.57, 74.86 -0.87 M1 92 C23.45 62.59, 48.31 37.35, 80.28 -0.93 M-0.01 91.46 C17.13 73.7, 34.11 53.86, 78.42 -0.24 M-2.08 97.08 C31.15 61.97, 60.77 28.91, 86.39 -1.66 M0.25 97.39 C24.68 69.35, 49.25 40.64, 84.55 -1.18 M-1.29 101.9 C35.03 62.53, 66.61 23.21, 89.05 -0.21 M0.37 103.23 C27.84 69.91, 56.72 37.17, 90.73 0.07 M-1.19 110.11 C36.11 70.25, 67.97 32.63, 97.15 -0.65 M0.72 110.32 C28.6 77.68, 56.38 44.97, 95.22 0.48 M0.3 115.44 C32.09 82.17, 60.34 47.84, 100.24 1.82 M-0.5 116.24 C37.26 72.45, 76.47 26.91, 101.26 0.92 M-0.09 122.52 C40.8 75.53, 83.06 28.99, 106.96 1.61 M0.83 121.46 C40.9 75.58, 80.33 30.45, 105.61 -1.23 M-1.16 128.32 C35.94 87.55, 70.38 49.06, 113.12 -0.47 M0.73 128.68 C38.69 85.63, 75.94 42.06, 110.74 0.52 M2.02 135.19 C24.38 107.74, 47.41 80.76, 115.49 0.22 M0.55 133.74 C28.07 101.39, 56.47 68.3, 116.76 1.18 M1.46 139.84 C45.52 87.48, 92.66 34.01, 123.1 1.19 M0.32 140.5 C34.31 98.85, 71.74 56.39, 122.83 -0.87 M2.03 146.87 C33.74 109.98, 68.82 69.36, 128.52 1.84 M0.79 146.18 C46.71 92.93, 91.73 42.33, 126.6 1 M1.34 153.35 C47.77 98.16, 92.13 42.93, 133.58 0.82 M-0.46 152.05 C25.91 122.49, 52.61 91.06, 132.18 -0.85 M0.25 158.93 C44.51 109.63, 89.54 58.46, 137.93 1.19 M0.63 158.63 C28.46 125.05, 57.39 91.64, 138 -0.11 M0.89 165.58 C56.2 100.56, 110.98 35.38, 144.39 -1.11 M0.93 164.77 C56.62 100.12, 113.72 34.75, 142.31 0.61 M-0.59 172.2 C33.48 133.37, 67.93 95.66, 148.52 -1.19 M0.42 170.68 C42.83 119.72, 87.58 69.99, 147.7 0.56 M1.9 175.35 C49.79 121.86, 97.56 64.38, 155.23 0.41 M0.68 176.57 C36.96 136.42, 71.73 96.53, 153.5 0.43 M-0.25 184.17 C49.17 127.61, 98.66 73.06, 157.45 -0.44 M-0.71 182.37 C50.18 120.81, 102.8 62.14, 158.75 0.29 M-1.03 190.44 C46.26 136.42, 94.75 82.16, 166 -1.66 M0.48 189.71 C39.08 143.16, 80.88 94.58, 165.15 -0.81 M-0.93 193.56 C65.8 119.21, 134.08 42.12, 168.84 -0.3 M-0.53 194.75 C36.16 156.18, 69.41 116.84, 169.71 0 M-1.17 201.18 C53.54 137.33, 108.84 75.14, 173.6 0.62 M-0.3 200.88 C39.09 156.14, 78.59 110.87, 174.36 0.59 M1.77 206.95 C41.07 159.9, 80.61 115.67, 180.22 0.5 M0.53 207.24 C43.71 157.8, 85.08 108.93, 180.07 0.56 M-0.47 214.81 C61.86 143.64, 120.53 76.37, 184.53 0.35 M-0.24 213.89 C57.43 146.34, 115.72 78.72, 185.37 0.3 M0.4 218.68 C37.68 174.29, 76.31 131.39, 189.47 1.49 M0.43 218.6 C66.27 143.7, 132.58 67.28, 190.06 -0.25 M6.6 219.06 C72.16 145.8, 133.54 72.75, 195.73 -1.22 M6.79 218.02 C61.32 152.27, 118.93 88.57, 196.72 0.47 M11.7 218.2 C59.53 164.4, 107.84 110.13, 200.67 0.7 M11.03 217.9 C62.6 161.47, 112.84 102.88, 200.57 0.06 M16.58 216.89 C65.73 160.71, 115.09 105.99, 207.51 -1.67 M16.97 217.81 C84.15 141.32, 149.81 64.4, 206.28 0.17 M21.2 218.13 C94.12 138.71, 164 57.74, 211.91 0.53 M22.8 217.58 C83.59 148.11, 145.08 77.98, 211.7 -0.56 M27.77 217.08 C85.07 157.24, 137.89 95.94, 217.28 -0.15 M27.42 217.82 C78.28 163, 127.97 105.29, 217.15 0 M33.43 218.21 C85.11 160.87, 135.53 101.6, 221.37 -1.23 M32.22 218.83 C82.33 164.28, 129.8 110.66, 222.73 0.41 M39.47 216.3 C98.4 147.32, 162.1 73.8, 228.53 -0.4 M38.37 218.12 C80.94 169.57, 121.73 121.32, 228.59 -0.86 M43.98 219.57 C104.16 146.16, 169.69 72.38, 233.34 0.64 M44.04 218.37 C83.58 173.58, 122.18 130.35, 233.68 -0.46 M48.09 218.65 C119.62 137.18, 186.99 56.96, 238.19 -1.03 M49.25 217.35 C92.21 168.38, 134.34 120.12, 238.42 0.55 M54.58 218.73 C101.85 160.93, 149.73 105.93, 243.2 0.75 M54.65 217.47 C117.25 146.63, 179.23 75.1, 243.75 -0.58 M58.49 218.34 C114.89 153.1, 169.04 89.85, 248.24 1.54 M59.57 217.93 C110.68 157.11, 163.34 96.09, 248.65 0.48 M64.02 216.64 C106.77 169.65, 145.59 122.45, 255.43 1.12 M64.17 217.46 C137.74 132.65, 210.81 48.97, 254.34 -0.26 M68.57 217.78 C125.19 156.76, 178.67 95.94, 258.8 -0.47 M69.96 218.58 C144.44 133.43, 219.07 47.8, 260 0.49 M74.2 218.66 C127.12 154.15, 183.62 91.72, 265.57 -0.83 M74.93 218.22 C139.52 144.56, 204.46 71.73, 264.57 0.17 M80.37 217.02 C122.84 171.87, 160.61 126.39, 270.74 0.83 M79.84 218.81 C154.82 133.15, 227.5 49.01, 270.05 -0.07 M87.1 216.52 C131.85 166.17, 177.86 111.19, 275.31 -0.26 M85.46 218.14 C152.03 141.69, 218.78 66.08, 275.75 0.49 M90.67 219.78 C136.54 166.34, 180.41 112.79, 281.99 -0.3 M91.44 218.94 C145.25 156.5, 198.59 94.59, 280.1 -0.29 M95.8 218.4 C158.67 143.46, 222.74 68.7, 286.38 0.07 M96.49 217.2 C136.09 173.41, 175.08 127.63, 286.91 0.49 M102.36 219.15 C143.19 168.96, 187.77 117.41, 290.62 0.86 M101.73 217.82 C160.68 150.15, 221.5 80.88, 290.65 0.77 M108.49 218.86 C170.87 146.34, 233.29 69.98, 297.64 -1.21 M107.94 218.42 C163.03 155.33, 215.69 93.5, 296.25 0 M112.39 218.66 C177.96 148.04, 239.87 75.43, 299.46 2.91 M112.86 218.89 C171.68 152.59, 229.87 85.39, 300.07 1.11 M118.44 216.85 C170.34 158.64, 222.74 97.67, 300.82 7.26 M117.44 217.31 C185.4 138.63, 253.28 59.98, 299.99 8.75 M123.88 217.19 C160.45 177.18, 193.53 135.64, 301.28 14.13 M123.21 218.06 C178.6 154.37, 232.99 90.8, 300.25 14.61 M127.93 218.89 C184.7 149.72, 244.31 84.85, 301.95 19.4 M129.41 218.59 C173.12 164.56, 220.77 111.22, 300.19 20.63 M133.9 218.22 C194.41 148.31, 255.4 77.57, 301.85 25.33 M133.28 218.92 C196.61 147.87, 257.82 76.43, 299.73 27.29 M139.62 217.46 C189.2 159.45, 239.48 98.79, 299.51 32.06 M139.76 217.71 C200.81 147.4, 260.99 78.09, 299.81 32.52 M145.92 217.24 C188.26 168.82, 232.2 121.36, 301.91 38.84 M144.47 218.93 C197.72 156.74, 252.5 95.69, 299.73 37.83 M149.81 219.24 C206.38 156.63, 260.43 93.79, 300.45 45.14 M149.73 218.08 C194.64 166.36, 239.63 115.31, 299.66 44.59 M153.62 217.68 C192.45 176.09, 226.22 136.35, 299.7 51.09 M155.7 218.67 C196.23 170.86, 237.05 123.04, 299.74 50.83 M161.45 219.4 C203.57 171.51, 245.63 122.42, 300.07 55.63 M159.81 218.36 C193.46 178.12, 227.66 137.5, 301.07 57.78 M164.25 217.96 C207.23 170.52, 251.53 121.72, 299.83 64.07 M164.82 218.88 C201.79 176.79, 236.62 136.92, 299.35 63.39 M170.04 218.53 C202.82 183.32, 233.54 147.07, 301.23 68.1 M170.78 217.76 C202.14 181.45, 235.3 145.4, 299.82 68.69 M174.98 217.99 C224.73 164.99, 268.85 112.2, 298.5 75.71 M175.71 218.67 C218.7 167.22, 264.86 116.77, 301.1 75.47 M180.27 216.57 C209.08 190.52, 234.97 159.38, 299.42 82.48 M180.69 219.02 C221.09 175.56, 258.29 131.83, 299.69 81.16 M186.9 219.59 C215.36 183.02, 244.54 152.9, 301.41 87.84 M186.21 218.81 C214.18 186.29, 240.01 156, 300.61 87.6 M191.51 218.27 C224.34 179.96, 256.05 143.35, 301.39 92.54 M192.19 217.49 C225.99 180.82, 257.56 143.38, 299.28 94.35 M196.84 218.42 C226.17 185.97, 250.26 158.2, 299.04 99.69 M196.61 218.45 C218.98 193.02, 239.62 169.93, 300.91 99.62 M203.78 217.25 C237.1 180.16, 267.13 144.13, 300.06 107.82 M201.62 217.75 C224.84 191.67, 248.17 164.84, 299.94 105.11 M209.87 216.05 C241.19 178.49, 277.28 141.12, 302.06 112.27 M208.22 218.68 C239.42 182.65, 269.01 146.42, 300.01 111.41 M213.24 217.02 C246.25 179.73, 278.6 140.29, 298.49 118.03 M212.28 218.44 C243.55 181.89, 274.76 146.29, 300.04 118.61 M219.2 215.94 C239.39 191.6, 262.64 165.97, 300.57 125.2 M219.29 218.68 C244.45 186.08, 271.75 156.79, 300.24 123.68 M224.17 218.97 C241.19 199.36, 260.03 173.91, 300.51 129.98 M224.39 218.25 C247.92 189.3, 272.23 161.91, 299.51 129.33 M230.19 219.39 C256.03 186.84, 282.71 155.1, 298.8 137.73 M229.02 217.68 C250.88 195.25, 271.68 170.63, 300.82 136.93 M232.95 218.34 C259.54 188.45, 288.09 156.66, 302.08 140.38 M235.09 217.95 C258.95 188.74, 285.5 159.83, 301.22 141.82 M240.28 217.59 C262.7 191.05, 282.64 168.63, 299.11 149.25 M239.54 216.98 C260.86 194.24, 281.21 171.16, 299.94 147.99 M244.12 216.27 C255.49 204.64, 269.98 190.8, 298.64 156.53 M244.5 218.36 C255.33 203.85, 267.1 191.64, 300.35 155.43 M251.06 219.63 C268.82 197.23, 287.77 176.71, 300.65 160.27 M249.91 217.92 C269.44 195.1, 289.57 173.72, 301.39 161.01 M254.33 219.77 C271.33 199.22, 290.1 178.35, 299.7 165.38 M255.64 218.38 C268.29 203.73, 281.1 189.76, 300.95 167.34 M260.26 216.43 C273.81 204.69, 282.16 190.02, 298.71 173.16 M262.13 217.94 C274.56 201.49, 288.65 185.02, 299.88 172.17 M264.35 217.71 C272.43 210.54, 282.41 200.99, 300.96 178 M266.48 218.95 C274.84 209.09, 283.73 199, 300.06 179.01 M273.71 216.83 C278.16 208.14, 288.87 198.6, 300.01 184.93 M271.14 218.5 C282.73 204.77, 293.8 193.16, 300.41 184.5 M275.08 216.86 C281.15 213.64, 286.69 204.26, 298.88 190.58 M275.94 219.08 C282.17 212.12, 286.85 206.64, 300.3 191.25 M281.36 219.5 C289.18 208.41, 297.56 204.01, 301.4 196.22 M282.82 217.16 C288.54 210.17, 296.21 201.63, 300.91 196.81 M287.55 217.83 C291.23 211.17, 296.32 207.05, 302.04 201.19 M287.87 217.86 C290.43 214.19, 293.89 209.08, 301.25 202.92 M292.57 218.04 C295.14 215.17, 298.08 210.86, 301.25 208.41 M292.97 218.34 C295.02 215.7, 297.69 212.35, 300.27 209.9" stroke="#ced4da" stroke-width="0.5" fill="none"></path><path d="M1.34 1.4 C87.99 -1.59, 173.44 -0.27, 296.8 0.19 M-0.07 0.71 C114.49 -1.51, 228.81 -1.53, 298.28 0.67 M298.72 -1.67 C300.92 63.74, 299.95 126.41, 297.99 215.48 M297.47 -0.68 C297.23 64.53, 296.8 129.65, 297.41 217.76 M297.61 217.79 C194.42 217.02, 92.27 216.66, -0.61 216.77 M298.02 217.31 C219.96 216.25, 142.69 216.23, -0.07 217.54 M-0.09 215.49 C0.54 133.3, 0.4 49.06, -0.77 0.88 M0.24 216.39 C-0.12 153.09, 0.89 87.73, 0.62 -0.85" stroke="#000000" stroke-width="1" fill="none"></path></g><g transform="translate(748.75 65.25) rotate(0 45.5 36)"><text x="45.5" y="17" font-family="Virgil, Segoe UI Emoji" font-size="19.669966996699667px" fill="#000000" text-anchor="middle" style="white-space: pre;" direction="ltr">Back End</text><text x="45.5" y="41" font-family="Virgil, Segoe UI Emoji" font-size="19.669966996699667px" fill="#000000" text-anchor="middle" style="white-space: pre;" direction="ltr">(Node)</text><text x="45.5" y="65" font-family="Virgil, Segoe UI Emoji" font-size="19.669966996699667px" fill="#000000" text-anchor="middle" style="white-space: pre;" direction="ltr"></text></g><g stroke-linecap="round" transform="translate(583.8537068238472 139.80700809858172) rotate(89.86613159987301 95 27)"><path d="M0 0 C0 0, 0 0, 0 0 M0 0 C0 0, 0 0, 0 0 M-0.47 6.05 C1.76 5.18, 3.52 2.39, 4.41 0.69 M-0.6 6.74 C1.33 4.22, 2.83 3.1, 5.17 0.4 M0.81 10.77 C4.42 10.08, 5.58 6.7, 9.89 -1.33 M0.44 11.65 C3.55 6.81, 8.55 3.41, 11.27 -0.8 M0.84 19.6 C2.62 16.35, 5.88 11.21, 16.71 0.58 M0.14 18.9 C3.94 14.59, 7.33 8.86, 14.98 -0.03 M-1.47 23.59 C4.82 17.32, 14.41 10.86, 19.34 1.52 M0.87 24.69 C7.24 14.4, 16.25 5.64, 20.36 -0.46 M1.43 30.86 C5.32 22.42, 11.59 16.78, 27.3 1.43 M-0.75 29.73 C5.88 24.11, 12.12 16.47, 25.65 0.92 M-1.6 37.25 C6.8 27.99, 16.39 15.23, 31.67 -0.07 M-0.77 37.56 C8.05 26.36, 16.52 18.4, 31.34 -1.06 M-0.97 42.93 C7.15 35.32, 14.76 24.06, 36.9 0.79 M-0.44 43.34 C12.52 28.06, 23.73 14.7, 36.5 0.68 M0.99 49.49 C10.84 36.67, 24.69 19.96, 43.34 0.6 M-0.78 48.76 C11.77 34.51, 23.65 21.23, 43.39 0.1 M-0.21 53.33 C9.02 45.61, 17.42 33.53, 47.22 1.61 M-0.64 55.36 C15.23 37.43, 31.96 19.74, 47.56 0.67 M6.75 55.71 C20.8 37.53, 37.51 20.02, 55.15 0.4 M5.35 54.41 C16.32 43.08, 28.35 29.32, 52.5 -0.04 M12.47 53.35 C25.65 36.96, 37.51 24.34, 60.11 0.71 M10.37 55.41 C28.19 33.02, 46.26 13.43, 57.75 0.35 M17.73 52.75 C27.68 38.32, 43.83 24.94, 63.97 -1.91 M16.5 54.27 C30.55 38.97, 44.06 21.99, 63.56 -0.45 M20.98 56.33 C30.59 40.97, 41.62 27.27, 69.51 0.77 M22.25 55.33 C33.03 41.8, 42.16 30.51, 68.96 -0.7 M28.78 55.08 C40.11 37.72, 57.17 18.05, 74.85 -1.7 M27.19 53.91 C39.11 38.7, 52.72 24.13, 74.42 -0.07 M31.85 53.4 C48.37 37.31, 64.46 16.83, 77.53 -1.62 M32.09 54.95 C43.19 41.89, 52.2 29.93, 79.99 1.09 M39.5 53.77 C54.89 37.84, 71.49 16.23, 84.94 -0.46 M37.5 53.68 C46.32 42.99, 56.36 31.16, 85.88 0.25 M43.72 53.57 C57.51 35.54, 74.84 16.96, 90.37 -0.04 M41.93 54.16 C59.22 34.74, 77.41 15.37, 90.61 -0.58 M49.6 53.76 C60.99 39.97, 77.33 22.43, 95.49 -1.82 M48.43 54 C62.47 36.36, 76.72 21.02, 95.65 -0.3 M55.37 55.71 C69.42 37.74, 84.33 20.13, 102.37 1.85 M52.75 54.91 C63.48 42.27, 74.05 32.37, 101.5 0 M58.26 54.63 C70.67 42.31, 81.11 31.24, 107.93 0.48 M59.27 54.11 C67.93 44.08, 77.7 30.59, 106.38 -0.45 M65.71 52.59 C77.85 40.04, 89.8 26.65, 111.99 -1.77 M64.44 55.2 C80.14 35.65, 95.7 17.04, 110.3 0.63 M70.75 55.56 C84.98 37.83, 97.84 19.64, 115.11 -0.67 M68.19 55.05 C84.97 35.18, 102.64 17.28, 117.03 -0.13 M73.76 54.83 C91.26 35.08, 108.72 17.37, 121.83 1.17 M73.86 55.12 C92.26 34.21, 109.93 13.64, 121.56 -0.83 M78.51 55.86 C89.14 42.61, 99.76 34.18, 128 -0.77 M80.37 54.17 C97.65 35.08, 114.01 15.09, 127.44 0.55 M86.66 54.94 C101.51 32.46, 122.06 13.61, 130.59 0.62 M84.79 54.8 C97.29 40.15, 109.83 25.24, 132.79 -0.46 M89.75 55.99 C100.26 44.42, 111.07 32.06, 135.72 0.81 M90.55 54.15 C104.86 37.01, 119.74 20.39, 138.42 -0.21 M95.69 55.3 C112.31 33.13, 132.48 12.07, 145.12 0.39 M95.96 54.44 C106.82 41.59, 116.42 29.61, 142.43 -0.29 M100.8 54.27 C111.71 43.76, 120.55 30.61, 148.17 1.82 M100.42 53.71 C111.42 42.8, 122.12 29.65, 148.38 1.1 M108.26 56.17 C118.39 41.24, 132.7 26.45, 152.37 -1.83 M107.02 54.31 C120.1 39.05, 133.2 23.48, 153.86 -0.26 M112.14 54.88 C126.89 40.54, 136.84 22.55, 159.37 1.9 M110.62 53.65 C130.33 34.07, 149.38 11.91, 158.67 0.06 M115.89 55.67 C130.66 40.53, 145.42 22.05, 163.44 1.54 M116.56 54.73 C128.35 39.78, 140.51 26.78, 165.39 -0.27 M120.34 55.9 C135.86 40.69, 148.8 23.3, 167.48 -1.45 M122.71 54.83 C134.44 40.62, 148.08 25.54, 169.57 0.3 M126.22 53.82 C142.37 37.53, 157.28 19.62, 173.53 -0.05 M128.13 54.08 C143.71 36.83, 156.79 21.22, 174.28 -0.16 M134.13 53.27 C148.5 37.76, 162.96 19.92, 178.76 -0.85 M133.19 54.16 C146.72 36.58, 162.46 20.56, 180.31 -0.47 M139.05 52.49 C148.02 42.2, 159.12 29.1, 185.98 0.69 M138.2 54.83 C153.95 35.86, 169.5 18.49, 184.72 0.31 M142.34 52.81 C152.66 43.14, 161.37 33.95, 191.63 0.97 M143.51 54.63 C155.25 41.25, 164.37 29.26, 191.04 -0.49 M150.25 55.43 C159.76 40.96, 173 24.09, 190.36 7.77 M148.17 53.47 C163.28 39.37, 176.39 24.11, 189.93 6.23 M153.92 54.2 C163.55 44.87, 170.15 35.78, 189.45 11.95 M154.03 55.28 C164.69 42.53, 173.71 31.25, 189.7 12.89 M159.87 52.29 C171.59 41.94, 180.62 29.41, 191.57 18.74 M160.38 54.59 C169.8 42.11, 179.56 31.01, 191.28 18.44 M165.98 55.03 C170.63 49.17, 175.65 42.65, 190.68 23.53 M164.08 55.21 C174.74 43.77, 183.3 31.81, 190.15 23.98 M172.05 54.57 C174.43 51.24, 178.27 44.8, 189.9 29.27 M170.14 54.82 C174.91 48.8, 178.2 44.94, 190.38 30.08 M175.72 54.72 C178.29 50, 180.4 44.95, 189.44 35.33 M175.9 53.6 C179.02 51.41, 181.8 47.75, 190.7 37.47 M178.88 55.98 C183.73 50.18, 186.99 47.4, 188.94 43.04 M180.83 55.4 C184.02 50.39, 188.3 45.48, 190.42 44.14 M185.45 54.43 C187.66 52.57, 188.37 51.89, 189.89 48.72 M186.23 54.11 C187.41 53.24, 188.64 51.26, 190.8 49.17" stroke="#868e96" stroke-width="0.5" fill="none"></path><path d="M1.45 -1.84 C58.47 -1.86, 116.41 -1.55, 191.65 -1.69 M0.61 -0.03 C70.83 -1.89, 140.06 -0.91, 189.88 0.63 M191.97 1.49 C191.08 20.36, 190.21 35.49, 190.01 53.39 M189.78 -0.72 C188.95 13.91, 189 30.22, 190.46 54.27 M189.22 52.61 C124.39 53.15, 57.2 54.7, -0.79 53.06 M189.36 54.15 C140.2 54.91, 90.76 55.52, 0.88 53.29 M-0.92 54.54 C-1.05 35.79, -0.86 17.66, -0.03 -0.36 M-0.53 54.96 C0.48 42.95, 0.56 30.43, 0.55 0.73" stroke="#000000" stroke-width="1" fill="none"></path></g><g transform="translate(655.8537068238472 154.80700809858172) rotate(89.86613159987301 23 12)"><text x="23" y="17" font-family="Virgil, Segoe UI Emoji" font-size="19.66996699669967px" fill="#000000" text-anchor="middle" style="white-space: pre;" direction="ltr">Grpc</text></g><g stroke-linecap="round"><g transform="translate(368.019406392694 164.23450310186752) rotate(0 138.42564292940307 -0.7064232026536956)"><path d="M-1.11 -0.33 C45.03 -0.62, 231.42 -1.11, 277.96 -0.87 M0.51 -1.54 C46.39 -1.79, 230.84 0.02, 276.99 0.15" stroke="#000000" stroke-width="1" fill="none"></path></g><g transform="translate(368.019406392694 164.23450310186752) rotate(0 138.42564292940307 -0.7064232026536956)"><path d="M248.19 10.18 C258.21 6.77, 272.66 0.84, 278.35 -0.03 M249.72 10.17 C260.24 7.16, 270.93 2.89, 277.44 0.57" stroke="#000000" stroke-width="1" fill="none"></path></g><g transform="translate(368.019406392694 164.23450310186752) rotate(0 138.42564292940307 -0.7064232026536956)"><path d="M248.33 -10.34 C258.44 -5.64, 272.83 -3.46, 278.35 -0.03 M249.85 -10.35 C260.45 -5.23, 271.09 -1.37, 277.44 0.57" stroke="#000000" stroke-width="1" fill="none"></path></g></g><g transform="translate(440.5 132.5) rotate(0 63.5 12.5)"><text x="0" y="18" font-family="Virgil, Segoe UI Emoji" font-size="20px" fill="#000000" text-anchor="start" style="white-space: pre;" direction="ltr">Msg Request</text></g><g stroke-linecap="round" transform="translate(837.5 146.5) rotate(0 42.5 25)"><path d="M-1.62 0.26 C19.32 -1.67, 36.69 -0.17, 86.92 1.22 M0.38 0.91 C25.12 0.69, 50.94 0.46, 84.04 0.99 M84.99 -1.75 C85.22 18.11, 84.65 36.23, 83.44 49.56 M84.32 0.87 C85.1 11.68, 85.11 22.55, 85.54 49.61 M84.17 49.68 C64.6 48.27, 45 49.27, 0.83 48.71 M84.9 50.73 C59.13 49.39, 31.97 50.05, -0.87 49.54 M-0.89 51.01 C0.24 33.29, -1.55 17.86, -1.41 -1.05 M0.71 49.03 C0.24 30.95, 0.67 10.67, 0.97 -0.28" stroke="#000000" stroke-width="1" fill="none"></path></g><g transform="translate(842.5 151.5) rotate(0 37.5 20)"><text x="37.5" y="14" font-family="Virgil, Segoe UI Emoji" font-size="16px" fill="#000000" text-anchor="middle" style="white-space: pre;" direction="ltr">Greeter </text><text x="37.5" y="34" font-family="Virgil, Segoe UI Emoji" font-size="16px" fill="#000000" text-anchor="middle" style="white-space: pre;" direction="ltr">Service</text></g><g stroke-linecap="round" transform="translate(10 10) rotate(0 208 141.5)"><path d="M-0.73 0.56 C86.15 -2.17, 173.3 -0.68, 416.91 -0.06 M-0.04 -0.03 C95.94 -0.58, 191.39 -0.14, 416.44 0.22 M417.31 -0.97 C417.37 61.66, 416.69 119.34, 416.13 282.84 M416.63 -0.67 C415.66 70.63, 415.71 141.61, 416.27 282.32 M416.42 283.92 C272.15 284.13, 127.17 284.36, -1.07 283.66 M416.46 283.23 C283.84 284.57, 150.72 284.33, -0.31 282.72 M-1.29 283.51 C-1.64 182.45, -0.11 84.54, 1.15 -0.77 M-0.35 283.19 C-1.56 183.23, -1.24 84.08, -0.03 0.45" stroke="#000000" stroke-width="1" fill="none"></path></g><g transform="translate(73 15) rotate(0 145 12.5)"><text x="145" y="18" font-family="Virgil, Segoe UI Emoji" font-size="20px" fill="#000000" text-anchor="middle" style="white-space: pre;" direction="ltr">Docker Container (Front End)</text></g><g stroke-linecap="round" transform="translate(604 13.5) rotate(0 208 141.5)"><path d="M0.71 0.06 C130.91 0.66, 261.93 1.67, 416.31 0.17 M-0.22 0.15 C163.25 2.34, 325.11 1.5, 415.5 -0.5 M416.09 -0.2 C417.26 72.95, 416.79 147.74, 415 284.13 M415.3 -0.38 C418.43 86.91, 418.45 175.1, 415.51 283.42 M415.14 284.03 C284.1 284.82, 151.71 284.06, -1 283.74 M415.83 282.47 C294.56 282, 173.54 282.07, 0.28 283.15 M-0.39 283.22 C-0.72 219.84, -1.91 155.71, -1.22 -0.25 M0.39 282.41 C-1.17 216.77, -1.42 149.89, 0.23 -0.05" stroke="#000000" stroke-width="1" fill="none"></path></g><g transform="translate(669 18.5) rotate(0 143 12.5)"><text x="143" y="18" font-family="Virgil, Segoe UI Emoji" font-size="20px" fill="#000000" text-anchor="middle" style="white-space: pre;" direction="ltr">Docker Container (Back End)</text></g></svg>