<svg version="1.1" xmlns="http://www.w3.org/2000/svg" viewBox="0 0 901.5 132.5" width="901.5" height="132.5">
  <!-- svg-source:excalidraw -->
  
  <defs>
    <style>
      @font-face {
        font-family: "Virgil";
        src: url("https://excalidraw.com/Virgil.woff2");
      }
      @font-face {
        font-family: "Cascadia";
        src: url("https://excalidraw.com/Cascadia.woff2");
      }
    </style>
  </defs>
  <rect x="0" y="0" width="901.5" height="132.5" fill="#ffffff"></rect><g stroke-linecap="round"><g transform="translate(569 68.93529768091105) rotate(0 -119.58557920093654 1.783420968455033)"><path d="M-0.64 1.08 C-40.71 1.46, -200.55 1.48, -240.4 1.88 M1.23 0.6 C-38.51 1.14, -197.98 2.81, -238.31 2.97" stroke="#000000" stroke-width="1" fill="none"></path></g><g transform="translate(569 68.93529768091105) rotate(0 -119.58557920093654 1.783420968455033)"><path d="M-208.41 -9.51 C-220.22 -5.32, -226.07 -1.81, -240.09 1.88 M-209.99 -7.47 C-218.01 -5.1, -225.92 -1.17, -238.59 2.04" stroke="#000000" stroke-width="1" fill="none"></path></g><g transform="translate(569 68.93529768091105) rotate(0 -119.58557920093654 1.783420968455033)"><path d="M-208.25 11.01 C-220.04 8.95, -225.94 6.21, -240.09 1.88 M-209.84 13.05 C-218.08 9.45, -226.04 7.43, -238.59 2.04" stroke="#000000" stroke-width="1" fill="none"></path></g></g><g transform="translate(393 47) rotate(0 69 12.5)"><text x="0" y="18" font-family="Virgil, Segoe UI Emoji" font-size="20px" fill="#000000" text-anchor="start" style="white-space: pre;" direction="ltr">Grpc Message</text></g><g stroke-linecap="round" transform="translate(10 10) rotate(0 151.5 55.5)"><path d="M0 0 C0 0, 0 0, 0 0 M0 0 C0 0, 0 0, 0 0 M-0.44 6.71 C1.46 4.78, 3.15 3.76, 4.71 -0.28 M-0.24 6.44 C1.99 4.04, 3.26 2.29, 5.29 0.2 M-0.03 13.58 C2.93 9.64, 7.08 3.47, 10.22 0.67 M0.02 11.56 C2.96 7.24, 7.02 3.6, 10.37 -0.13 M-0.42 18.69 C6.2 13.49, 11.96 7.92, 16.49 1.5 M-0.17 18.34 C5.86 10.58, 12.51 5.15, 15.76 -0.48 M-1.02 24.65 C4.2 17.55, 7.97 13.42, 19.31 1.07 M0.85 24.19 C5.1 16.67, 12.6 11.56, 20.99 -0.29 M0.76 29.11 C8.32 22.67, 14.56 14.05, 28.05 1.21 M0.55 29.88 C9.88 19.39, 20.75 6.16, 25.56 0.94 M-1.82 36.9 C5.23 27.77, 14.35 20.71, 33.15 -0.32 M-0.6 37.09 C6.55 28.9, 13.41 20.9, 32.25 0.58 M-0.65 43.43 C11.66 27.57, 24.33 11.34, 36.98 -0.84 M0.27 41.61 C11.98 28.8, 23.44 14.55, 36.33 0.97 M1.46 47.84 C14.03 29.62, 29.35 13.69, 41.26 -1.93 M0.85 49.7 C15.26 33.3, 28.68 15.3, 42.1 0.5 M1.58 56.45 C17.07 34.51, 33.3 15.31, 46 -0.61 M-0.32 53.89 C11.7 41.27, 21.66 29.75, 48.14 -0.29 M-0.47 59.66 C17.59 40.65, 35.81 23.05, 52.96 1.44 M-0.7 61.16 C20.92 35.96, 42.16 12.15, 53.93 0.37 M0.75 67.48 C13.78 49.82, 28.05 34.59, 56.56 -1.26 M0.22 66.69 C16.24 48.02, 33.75 26.52, 58.98 -0.4 M-1.55 74.57 C20.67 47.77, 45.08 18.82, 63.33 0.76 M-0.6 72.26 C19.8 49.44, 40.99 26.52, 63.53 -1.05 M1.87 79.36 C16.02 61.82, 34.07 39.94, 66.83 0.81 M-0.33 79.57 C16.5 60.48, 32.54 41.11, 69.69 0.48 M1.01 85.54 C26.05 54.71, 54.95 25.92, 75.11 -1.22 M0.71 85.11 C19.45 62.71, 39.21 40.16, 74.09 -0.14 M-0.35 92.96 C21.31 69.84, 41.47 46.08, 77.67 2.01 M-0.76 91.22 C27.11 59.73, 54.31 30.46, 79.04 0.5 M0.06 99.11 C25.75 64.91, 56.5 31.85, 84.82 0.04 M0.01 96.96 C27.68 67.33, 53.9 34.45, 85.18 0.58 M-0.76 102.21 C30.14 71.59, 56.52 39.19, 90.69 1.5 M-0.79 103.44 C31.31 65.79, 65.14 28.52, 90.65 -0.8 M-0.87 110.31 C32.67 70.34, 66.66 31.12, 96.64 0.84 M-1.06 110.15 C19.41 84.77, 41.24 61.43, 95.75 -0.56 M3.41 114.52 C24.05 86.74, 47.09 59.06, 102.2 -0.76 M3.17 112.59 C28.06 83.02, 54.83 54.22, 100.07 0.48 M6.39 112.17 C28.34 87.53, 49.81 63.86, 104.51 -0.7 M6.93 112.58 C31.19 86.88, 52.79 63.14, 107.17 -1.34 M13.29 113.82 C46.86 71.69, 81.37 32.27, 113.25 1.97 M13.74 113.66 C42.29 79.3, 70.92 44.05, 111.72 -0.4 M18.24 110.84 C54.27 73.19, 89.32 33.51, 117.43 2.03 M17.86 111.85 C40.24 86.66, 61.36 62.46, 115.52 0.03 M22.62 113.18 C52.79 80.06, 87.25 42.82, 123.59 1.2 M23.82 113.82 C52.01 80.69, 80.64 47.28, 121.91 0.15 M28.45 114.23 C63.76 73.48, 96.61 37.39, 128.06 -0.81 M30.09 112.91 C52.26 83.25, 77.63 55.3, 127.24 0.97 M35.38 113.62 C67.89 75.46, 104.68 36.21, 133.69 -0.76 M33.22 112.3 C67.46 71.83, 104.02 31.44, 131.85 -0.88 M38.1 114.02 C61.3 89.38, 80.96 66.7, 138.83 -1.03 M39.51 113.04 C76.64 68.98, 115.97 24.38, 138.21 0 M43.29 111.96 C81.56 67.12, 123.37 25.73, 142.75 -0.84 M45.16 113.19 C83.39 68.4, 122.03 23.83, 142.62 -0.17 M51.03 114.66 C78.89 78.5, 109.48 45.99, 146.55 -1.41 M49.92 111.89 C74.77 85.22, 99.01 58, 147.34 0.76 M55.78 114.8 C87.92 74.79, 121.68 35.47, 154.67 -1.17 M55.25 112.44 C93.59 69.53, 132.64 25.95, 154.22 -1.03 M59.11 112.14 C81.76 86.59, 105.25 64.33, 159.74 -0.94 M61.33 113.2 C85.6 84.8, 108.32 56.21, 158.93 -0.24 M65.98 112.52 C89.57 88.67, 108.19 64.83, 164.09 0.89 M66.47 112.86 C97.24 76.86, 129.33 39.94, 164.53 -0.4 M70.91 112.98 C101.48 81.19, 130.54 48.96, 168.64 -0.84 M71.6 112.84 C110.21 68.02, 147.34 25.66, 169.68 -0.67 M76.77 113.27 C115.42 70.22, 153.1 23.48, 174.36 -1.23 M76.22 113.1 C99.65 85.25, 123.65 57.91, 174.3 0.12 M81.74 112.72 C109.23 80.91, 137.69 43.88, 179.2 1.46 M81.55 114.28 C108.6 83.17, 136.5 52.28, 179.69 0.69 M86.72 112.99 C122.75 74.39, 158.31 32.67, 187.54 -1.34 M87.25 112.71 C127.17 67.59, 166.01 23.43, 186.2 -0.69 M90.3 114.95 C125.29 72.2, 162.33 33.81, 191.1 -1.71 M92.52 112.6 C118.9 83.71, 144.1 54.56, 191.42 0.93 M96.15 113.41 C133.96 72.3, 169.54 27.51, 194.42 1.56 M98.75 113.05 C128.5 76.59, 160.4 39.27, 195.77 -0.72 M104 114.02 C138.93 69.7, 178.22 28.88, 199.75 1.8 M102.74 114.24 C136.49 75.26, 167.37 38.81, 200.74 -0.04 M109.06 112.03 C127.18 91.18, 146.9 68.05, 208.51 1.24 M109.27 112.39 C141.22 76.97, 174.52 37.7, 206.46 0.53 M112.97 113.09 C141.22 77.85, 171.92 46.89, 210.24 1.88 M114.33 114 C153.38 67.7, 191.38 23.43, 211.92 -0.41 M119.21 112.12 C156.49 68.42, 197.13 22.18, 216.03 -1.76 M119.74 112.82 C142.96 86.67, 165.02 60.93, 216.59 -1.1 M124.06 114.08 C144.11 87.84, 167.42 60.37, 223.43 0.23 M124.32 114.04 C146.26 86.49, 169.23 61.41, 222.6 0.46 M128.04 112.77 C169.82 69.5, 204.5 26.64, 229.92 -2.1 M130.52 113.3 C170 66.29, 208.4 21.98, 228.38 0.59 M134.84 111.69 C156.82 84.75, 180.97 57.58, 233.85 0.31 M135.61 112.87 C165.74 76.81, 197.84 40.67, 232.83 -0.92 M138.75 114.8 C180.55 68.3, 217.1 24.55, 239.19 1.07 M140.33 112.67 C171.64 77.1, 201.48 40.77, 238.29 -0.06 M143.6 111.4 C166.1 85.67, 191.49 60.07, 243.78 1.39 M146.01 112.39 C166.08 89.96, 186.43 64.87, 244.03 0.82 M150.21 110.86 C182.23 73.37, 218.43 34.96, 249.54 -0.85 M151.28 112.59 C174.42 83.68, 199.87 57.27, 248.64 -0.65 M155.33 111.49 C179.63 84.91, 205.55 53.83, 253.22 0.49 M155.19 112.81 C190.87 74.22, 223.14 35.25, 254.03 0.92 M163.05 111.34 C192.45 76.16, 226.75 38.42, 261.39 0.57 M161.88 112.62 C193.25 75.44, 226.98 38.66, 258.64 0.86 M167.77 113.01 C187.15 90.86, 208.94 68.16, 265.86 -1.57 M165.74 113.75 C189.64 88.11, 212.71 60.85, 266.04 -0.54 M172.95 115.2 C204.47 73.35, 238.6 35.63, 270.58 1.78 M171.39 113.91 C201.87 79.62, 232.54 44.45, 270.1 0.12 M177.35 113.79 C205.99 80.41, 233.38 49.48, 275.14 1.8 M178.13 113.15 C209.24 75.17, 240.77 40.34, 275.66 0.39 M183.26 112.89 C219.11 70.54, 253.41 29.22, 281.64 2.01 M181.39 113.21 C221.58 68.15, 260.29 23.36, 281.68 0.12 M189.25 114.43 C226.62 71.25, 265.23 24.85, 286.2 0.99 M187.72 112.33 C213.89 82.32, 240.63 52.75, 285.88 0.51 M191.11 112.93 C219.61 80.02, 247.69 47.31, 289.83 1.28 M192.92 114.39 C230.94 68.24, 268.71 23.93, 291.94 0.23 M199.33 112.33 C225.99 78.79, 256.33 48.99, 297.9 0.15 M197.75 112.96 C228.55 79.01, 258.6 45.43, 296.1 0.5 M203.98 112.84 C238.27 76.73, 270.1 35.88, 303.11 -1.6 M204.05 112.44 C239.98 69.27, 277.15 25.25, 302.34 -0.82 M208.2 111.67 C231.43 87.18, 252.64 59.14, 306.87 1.48 M208.39 112.08 C233.61 85.3, 257.6 58.68, 305.1 2.14 M213.09 113.94 C240.97 84.26, 267.57 52.78, 304.96 9.25 M214.24 113.18 C239.03 86.06, 261.87 58.7, 305.02 8.34 M219.18 113.4 C237.35 91.99, 257.66 69.51, 306.85 14.26 M219.64 113.09 C246.62 82.4, 272.42 52.48, 305.51 14.36 M223.35 111.32 C245.26 91.39, 265.58 67.83, 306.74 19.66 M225.34 112.33 C253.54 80.02, 284.42 44.74, 306.13 19.62 M232.29 113.26 C249.28 93.6, 269.08 71.18, 305.71 26.93 M230.44 112.73 C251.37 89.24, 273.41 65.79, 305.75 26.36 M235.42 111.88 C257.56 88.79, 274.44 66.73, 305.86 32.99 M234.59 112.44 C253.69 91.8, 273.95 71.17, 305.09 32.06 M242.31 111.76 C258.91 89.92, 276.97 71.5, 306.53 37.26 M241.61 112.11 C262.75 88.35, 282.92 64.12, 306.08 38.73 M247.66 112.25 C271.05 86.5, 293.36 60.88, 305.15 43.18 M245.64 113.93 C269.56 85.87, 291.58 60.84, 304.91 43.8 M252.7 112.21 C269.81 92.94, 287.68 71.01, 306.1 49.08 M250.84 113.71 C264.5 97.83, 279.05 81.7, 306.17 51.19 M258.15 112.89 C271.14 99.35, 282.64 84.02, 305.54 57.68 M257.5 114.06 C273.73 93.13, 289.98 74.89, 305.85 58.13 M261.65 114.69 C276.18 96.62, 288.83 81.96, 307.6 63.22 M261.73 112.37 C277.9 95.49, 293.15 77.89, 304.76 62.56 M266.7 112.01 C276.63 105.61, 284.71 95.2, 306.62 68.48 M267.59 113.98 C277.34 101.64, 287.36 91.22, 305.01 69.41 M272.08 114.05 C279.64 103.47, 288.36 95.63, 305.93 76.33 M272.77 112.26 C280.51 105.81, 285.62 97.71, 305.97 74.52 M276.82 111.62 C284.99 107.52, 291.94 97.44, 304.75 82.58 M278.72 113.68 C290.04 100.12, 299.8 87.06, 305.43 80.64 M285.62 113.94 C290.33 103.39, 300.05 96.1, 305.03 87.55 M284.33 111.94 C290.18 105.64, 295.79 98.13, 305.64 87.36 M289.76 111.5 C291.52 106.66, 296.32 103.23, 305.64 93.06 M288.07 113.02 C294.31 106.1, 301.52 98.78, 305.69 93.41 M292.12 113.54 C296.1 107.99, 299.24 104.53, 306.45 101.4 M293.08 114 C297.41 108.98, 302.01 103.28, 305.03 99.98 M298.86 112.13 C300.54 110.86, 304.24 108.22, 305.77 105.61 M298.74 112.88 C301.04 110.64, 303.63 108.17, 306.03 105.58" stroke="#ced4da" stroke-width="0.5" fill="none"></path><path d="M-1.19 0.1 C101.78 -0.85, 202.44 0.77, 304 -0.72 M-0.41 0.43 C66.99 0.04, 132.73 -0.13, 303.54 -0.22 M303.38 -0.54 C302.92 24.74, 304.48 53.69, 304.84 111.58 M302.06 0.94 C302.42 36.63, 301.41 74.65, 302.01 110.89 M304.06 109.84 C191.37 113.65, 80.25 114.1, 0.34 111.56 M303.32 111.57 C204.87 112.45, 106.35 112.58, 0.15 110.44 M-0.54 110 C0.6 68.19, 0.42 25.48, 1.82 0.1 M-0.06 111.38 C-1.29 69.98, -0.71 29.96, -0.16 -0.49" stroke="#000000" stroke-width="1" fill="none"></path></g><g transform="translate(15 40.5) rotate(0 146.5 25)"><text x="146.5" y="18" font-family="Virgil, Segoe UI Emoji" font-size="20px" fill="#000000" text-anchor="middle" style="white-space: pre;" direction="ltr">Front End</text><text x="146.5" y="43" font-family="Virgil, Segoe UI Emoji" font-size="20px" fill="#000000" text-anchor="middle" style="white-space: pre;" direction="ltr">(Go)</text></g><g stroke-linecap="round" transform="translate(233 39) rotate(270 45 27)"><path d="M0 0 C0 0, 0 0, 0 0 M0 0 C0 0, 0 0, 0 0 M-0.24 6.23 C0.33 5.78, 1.75 4.57, 5.14 -0.33 M-0.46 6.09 C1.61 4.23, 3.83 1.81, 5.27 0.53 M0.8 10.53 C1.14 8.6, 5.08 8.6, 12.15 0.67 M0.88 12.05 C4.68 7.63, 8.6 3.25, 11.31 -0.02 M0.64 20.07 C5.6 12.14, 8.39 9.38, 15.04 1.91 M0.02 17.59 C3.47 14.96, 6.17 11.5, 15.45 -0.11 M-1.38 23.3 C6.6 14.01, 14 7.94, 23.03 1.31 M0.85 23.86 C8.79 13.66, 17.63 4.64, 21.12 -0.52 M-1.28 29.24 C10.06 21.24, 19.43 9.51, 26.24 -0.28 M0.17 29.49 C6.42 23.58, 10.22 18.7, 26.62 0.53 M1.48 38.73 C10.43 24.19, 21.67 11.21, 33.55 1.79 M-0.46 36.92 C10.97 22.6, 24.22 8.27, 31.26 0.74 M0.45 43.07 C10.14 28.75, 23.86 16.58, 35.88 0.96 M0.8 41.78 C8.88 34.19, 15.67 24.87, 36.72 -0.12 M0.37 49.16 C11.92 35.18, 20.85 25.32, 41.62 -1.71 M0.62 49.24 C16.78 29.59, 32.71 10.68, 41.7 0.78 M-0.03 54.95 C14.81 38.87, 27.64 24.6, 47.6 -0.74 M0.41 53.79 C12.33 39.87, 24.49 26.75, 47.1 -0.49 M4.81 55.58 C14.6 45.05, 27.47 30.9, 54.48 0.59 M5.41 54.63 C18.87 39.52, 31.1 25.18, 52.63 0.43 M11.66 55.96 C22.56 43.13, 31.19 31.13, 57.74 -0.96 M10.36 54.58 C23.16 41.85, 34.8 27.2, 58.03 0.32 M18.45 53.29 C30.96 36.61, 48.6 18.32, 63.08 -1.75 M15.56 53.82 C30.09 40.69, 41.27 25.51, 63.65 -0.58 M20.59 53.12 C36.33 37.25, 55.31 15.19, 69.37 1.52 M22.45 54.28 C34.23 39.74, 48.17 24.5, 69.68 -0.42 M28.4 54.17 C40.55 39.98, 53.32 21.67, 76.1 -1.37 M27.3 53.69 C44.97 33.62, 63.27 10.78, 74.74 -0.68 M32.07 55.15 C45.81 37.82, 60.52 20.48, 78.29 -1.32 M31.33 54.75 C48.75 35.46, 64.37 18.54, 79.09 -0.08 M39.07 55.56 C54.35 35.5, 72.13 14.86, 85.94 0.85 M38.38 53.16 C50.56 38.72, 64.16 24.31, 85.25 0.55 M43.12 54.54 C59.39 35.49, 79.58 14.36, 90.99 -0.72 M43.07 54.76 C60.98 34.68, 77.01 14.2, 89.19 0.33 M49.59 55.62 C58.13 45.09, 66.9 33.71, 88.81 4.61 M48.43 53.55 C61.17 39.53, 72.77 25.15, 89.05 6.21 M52.48 53.58 C63.28 43.32, 72.53 33.85, 88.2 10.95 M54.1 54.89 C61.79 44.12, 71.89 33.13, 89.33 11.22 M59.15 56.02 C69.57 42.42, 76.32 34.88, 91.85 17.09 M59.3 54.26 C66.23 43.96, 74.83 34.49, 90.6 17.93 M62.6 54.35 C73.19 45.55, 81.87 32.82, 90.36 25.95 M64.27 54.62 C68.52 48.64, 75.04 41.65, 89.72 23.22 M67.64 52.96 C73.26 48.58, 79.08 42.74, 91.2 31.48 M68.71 54.8 C76.64 46.82, 82.6 39.26, 90.03 31.44 M73.67 52.68 C76.76 49.46, 82.75 48.26, 91.48 36.15 M73.8 55.27 C79.52 48.26, 85.49 41.57, 90.31 37.17 M78.07 55.48 C83.6 51.84, 86.23 47.4, 90.15 42.15 M79.39 54.38 C83.02 51.19, 85.17 49.09, 90.24 42.61 M85.41 54.95 C86.63 53.11, 87.86 50.37, 90.02 48.62 M84.96 54.54 C86.57 52.72, 87.65 51.53, 89.56 49.34" stroke="#868e96" stroke-width="0.5" fill="none"></path><path d="M-1.25 -0.72 C33.09 -0.06, 63.42 -0.31, 89 0.17 M-0.98 -0.91 C27.81 0.95, 55.35 -0.81, 89.59 0.98 M89.16 1.23 C89.37 16.21, 88.56 33.95, 90.87 53.83 M90.89 -0.23 C88.88 14.65, 89.1 30.89, 90.25 53.8 M88.77 53.42 C69.23 51.59, 47.79 53.66, 0.73 54.82 M89.1 53.77 C70.21 54.75, 49.8 54.47, -0.95 53.58 M-0.16 54.8 C1.19 39.86, 0.47 21.71, -1.3 -0.53 M-0.47 54.69 C-0.01 42.87, 1.45 31.25, 0.41 1" stroke="#000000" stroke-width="1" fill="none"></path></g><g transform="translate(238 53.5) rotate(270 40 12.5)"><text x="40" y="18" font-family="Virgil, Segoe UI Emoji" font-size="20px" fill="#000000" text-anchor="middle" style="white-space: pre;" direction="ltr">Grpc</text></g><g stroke-linecap="round" transform="translate(588.5 11.5) rotate(0 151.5 55.5)"><path d="M0 0 C0 0, 0 0, 0 0 M0 0 C0 0, 0 0, 0 0 M-0.03 6.09 C1.46 3.31, 4.12 0.93, 5.44 0.17 M-0.22 6.04 C1.16 4.72, 3.5 2.3, 4.9 0.2 M-0.96 13.18 C2.94 9.43, 5.14 6.93, 11.37 1.41 M-0.35 11.75 C3.85 8.51, 5.9 4.05, 11.15 -0.59 M-0.11 16.44 C3.66 13.12, 9.61 9.55, 15.4 -1.2 M0.09 18.38 C6.35 11.04, 12.76 4.76, 16.3 0.86 M1.18 22.91 C8.15 13.7, 14.65 6.32, 20.16 0.57 M-0.64 24.09 C8.81 13.99, 16.71 4.85, 21.98 0.51 M-1.07 29.84 C8.63 17.74, 20.65 5.12, 24.45 1.01 M0.78 31.34 C7.68 22.26, 13.06 13.96, 26.88 0.73 M1.63 37.71 C9.71 24.49, 20.5 9.16, 31.06 -1.48 M-0.92 37.85 C11.28 22.91, 24.63 9.35, 31.38 0.09 M-1.16 43.01 C9.56 32.61, 21.69 18.9, 38.49 2.16 M0.34 42.13 C8.72 31.9, 18.41 22.1, 37.42 -0.33 M0 48.64 C9.95 35.56, 22.28 21, 41.07 -0.12 M-0.79 48.25 C16.03 30.36, 30.06 14.27, 41.94 0.44 M1.84 52.85 C18.59 34.9, 33.21 14.46, 48.47 0.64 M-0.47 53.87 C14.76 38.27, 29.86 21.2, 46.66 -0.32 M-0.03 59.45 C12.89 47.33, 21.53 33.04, 53.81 -1.36 M0.19 60.74 C14.39 43.98, 28.28 29.35, 53.47 0.38 M0.25 66.73 C16.54 49.67, 34.91 28.98, 57.16 -0.47 M-0.18 66.81 C18.22 45.8, 36.44 25.37, 58.24 -0.35 M1.67 73.88 C14.08 59.56, 25.89 41.3, 65.67 0.52 M-0.07 72.89 C14.83 55.87, 31.94 37.12, 64.16 0.12 M1.15 77.47 C23.68 52.01, 47.38 23.67, 69.08 0.66 M-0.99 80.35 C27.28 48.69, 52.35 19.47, 69.62 0.37 M-0.99 86.35 C25.53 56.65, 50.3 31.01, 75.82 0.94 M0.23 84.18 C23.96 58.58, 48.03 30.7, 73.53 0.28 M0.44 89.88 C18.61 68.16, 37.55 48.15, 80.55 -1.43 M0.29 90.53 C29.47 57.24, 60.68 23.15, 79.15 -0.49 M1.02 96.8 C30.97 60.54, 61.03 28.28, 84.23 -0.94 M-0.91 97.72 C27.59 65.38, 56.86 32.29, 85.48 -1.16 M-0.55 103.73 C30.51 68.55, 62.52 29.3, 89.67 -1.5 M-0.13 104.03 C18.15 82.92, 38.39 61.58, 89.03 0.63 M0.49 109.59 C32.32 70.09, 66.86 33.77, 97.62 -0.28 M0.33 110.26 C34.12 69.16, 67.1 31.02, 95.25 0.18 M0.26 114.24 C26.03 87.65, 49.66 59.23, 102.31 -1.55 M1.28 113.66 C31.7 78.24, 63.24 41.75, 100.31 0.19 M7.88 111.01 C37.41 83.89, 62.76 52.64, 107.52 -0.48 M8.53 112.62 C39.27 76.98, 69.58 42.3, 106.47 0.08 M14.31 115.09 C48.52 72.92, 87.37 31.05, 110.13 -0.91 M13 112.34 C48.24 70.05, 85.27 28.71, 111.91 0.52 M18.99 112.43 C53.28 76.55, 86.37 38.3, 115.57 1.51 M17.67 111.89 C54.22 71.97, 90.97 28.49, 115.45 -0.53 M24.77 115 C59.84 73.4, 96.88 32.09, 120.58 1.83 M23.79 112.72 C62.82 69.22, 101.26 24.7, 121.61 0.88 M28 110.9 C53.92 84.38, 83.34 51.74, 126.15 2.21 M29.23 113 C61.12 75.67, 93.14 38.12, 126.82 0.38 M36.07 112.61 C69.95 72.11, 107.33 29.08, 130.87 -1.18 M33.3 113.06 C58.14 86.17, 82.5 57.24, 133.04 0.38 M41.5 111.17 C67.09 80.33, 93.26 52.2, 136.49 2.11 M39.14 111.77 C63.05 86.67, 86.16 61.49, 136.63 -0.48 M43.46 112.31 C69.12 84.55, 98.09 54.51, 142 -1.1 M44.53 113.99 C75.62 75.22, 106.58 40.28, 142.7 -0.96 M49.88 114.71 C74.53 84.5, 99.06 56.59, 149.21 0.66 M50.22 112.91 C83.23 75.22, 115.42 36.6, 147.93 0.23 M54.97 114.17 C83.58 83.32, 111.64 50.57, 152.77 1.63 M54.83 113.53 C78.28 83.77, 104.3 56.47, 152.93 0.77 M60.64 114.49 C96.31 73.93, 128.31 32.93, 157.75 -0.95 M60.48 113.75 C98.09 70.38, 136.35 24.9, 159.11 0.22 M65.37 111.98 C103.36 69.54, 136.19 29.22, 165.73 -0.69 M66.93 112.09 C87.62 89.28, 108.46 64.98, 164.96 0.36 M71.03 113.89 C99.23 84.25, 124.19 53.87, 168.31 2.17 M70.74 114.29 C102.22 77.73, 134.66 41.53, 168.96 0.63 M78.27 111.28 C95.4 91.27, 116.95 65.89, 173.23 -1.06 M75.92 113.49 C97.52 88.43, 118.93 63.95, 175.86 0.51 M82.11 113.3 C115.61 75.69, 145.45 37.15, 181.88 0.64 M81.76 112.64 C116.19 72.47, 149.76 33.2, 179.6 0.97 M88.01 111.31 C113.36 82.01, 142.2 49.51, 187.4 0.24 M88.22 113.91 C107.8 87.75, 130.03 61.73, 185.56 -1.2 M91.39 113.08 C131.96 68.34, 170.25 26.07, 192.22 0.79 M91.76 113.08 C122.04 80.81, 148.35 47.9, 191.51 0.12 M97.74 111.01 C123.42 81.32, 153.45 48.88, 198.14 1.65 M98.64 112.95 C118.63 86.4, 140.74 62.42, 195.85 0.69 M102.15 112.29 C137.04 74.99, 169.45 33.57, 199.89 -1.33 M102.85 113.77 C124.82 87.28, 147.12 60.71, 200.54 -0.62 M109.39 111.07 C144.14 71.57, 177.62 32.92, 207.15 -1.66 M109.35 112.59 C140.99 74.72, 175.07 37.03, 207.39 0.54 M113.46 114.71 C135.84 86.98, 158.59 64.75, 210.21 2.05 M114 113.74 C137.74 82.64, 164.28 53.68, 212.9 -0.57 M117.66 111.89 C149.45 75.96, 181.03 39.97, 217.9 0.19 M118.85 112.19 C153.12 73, 187.26 34.89, 216.67 0.61 M126.16 114.86 C153.49 79.79, 183.54 47.15, 223.29 0.42 M124.03 113.95 C160.42 71.18, 196.09 30.45, 222.16 -0.65 M128.04 111.58 C165.67 72.37, 203.42 28.31, 229.65 -2.21 M129.03 113.51 C163.77 74.08, 195.9 34.99, 229.08 0.03 M132.88 111.95 C170.1 73.29, 206.47 30.2, 232.04 -1.01 M134.62 112.22 C164.15 78.12, 196.19 42.98, 232.23 -0.41 M138.8 111.97 C180.49 67.95, 217.69 22.37, 238.75 1.23 M140.12 113.7 C168.94 80.25, 197.35 47.71, 239.19 0.61 M144.03 111.93 C173.01 82.12, 199.35 51.08, 244.12 0.7 M145.31 112.26 C179.69 74.28, 214.35 34.93, 244.41 -0.99 M150.98 112.61 C177.22 84.75, 202.9 55.04, 247.36 -0.98 M151.72 112.3 C179.53 82.44, 205.59 53.17, 248.39 0.73 M157.8 113.46 C193.87 68.1, 234.16 22.44, 255.99 0.17 M156.51 112.7 C188.08 77.98, 218.64 43.54, 254.33 -0.15 M162.42 112.78 C192.71 76.36, 225.32 42.07, 261.4 0.68 M161.78 112.24 C180.79 87.43, 203.09 63.69, 259.98 0.99 M166.16 113.93 C199.67 72.44, 234.07 35.85, 266.89 1.79 M166.47 114.03 C199.85 75.86, 233.59 37.09, 265 0.75 M173.07 114.22 C203.19 80.17, 230.07 44.45, 271.25 -0.32 M170.97 113.61 C209.1 70.98, 247.53 27.4, 270.77 0.08 M176.85 111.42 C201.13 83.51, 225.7 54.34, 276.83 1.62 M178.32 113.64 C212.27 71.45, 248.22 30.15, 275.78 -0.28 M181.64 112.14 C205.49 85.1, 233.16 56.35, 281.07 0.21 M182.27 113.59 C209.1 84.23, 236.16 51.85, 281.42 0.6 M187.43 114.76 C221.34 76.54, 250.56 40.73, 284.61 1.48 M187.03 112.82 C225.94 67.14, 264.12 23.58, 285.38 -0.81 M191.64 113.7 C231.32 68.97, 267.45 27.98, 290.81 -0.81 M192.06 114.06 C226.15 76.78, 260.27 37.77, 291.46 0.02 M199.19 113.49 C225.24 85.03, 249.38 53.68, 297.82 -1.11 M198.44 113.74 C219.65 88.22, 240.82 62.5, 296.91 -1.03 M204.04 113.06 C242.77 70.63, 280.38 26.05, 302.18 0.24 M203.73 113.49 C228.05 84.81, 253 56.27, 302.28 -0.26 M207.25 111.85 C233.68 86.6, 256.22 64.11, 304.85 3.35 M208.26 112.46 C242.66 75.79, 273.99 38.1, 304.81 1.5 M214.56 114.08 C249.41 76.65, 281.24 37.28, 305.46 8.02 M214.03 112.78 C236.94 88.42, 259.73 62.9, 304.89 8.31 M218.46 114.83 C245.57 80.43, 273.82 51.17, 306.28 13.36 M219.03 111.94 C239.05 92.29, 258.97 69.02, 305.34 13.93 M223.73 112.35 C244.21 87.04, 268.26 65.13, 303.89 21.06 M224.08 114.2 C254.54 78.54, 284.47 45.17, 305.36 21.37 M229.5 114.12 C248.81 91.59, 268.23 69.85, 303.9 28.55 M231.18 113.02 C247.51 91.46, 267.11 70.44, 304.52 27.18 M234.84 113.16 C254.12 92.15, 270.74 72.18, 303.79 31.39 M236.35 112.42 C251.51 96.05, 266.51 77.72, 305.9 32.19 M240.8 114.13 C260.14 91.38, 277.85 71.2, 305.74 39.8 M241.98 113.44 C263.27 86.09, 287.2 60.25, 306.19 39.11 M247.98 113.55 C268.58 86.23, 292.75 62.82, 306.03 45.5 M245.66 113.49 C261.45 96.21, 276.68 77.03, 305.36 43.7 M250.59 113.98 C271.34 93.93, 287.84 74.09, 304.63 49.98 M252.56 112.82 C262.34 100.35, 274.05 86.77, 305.56 50.22 M258.01 112.24 C269.39 98.46, 283.39 83.11, 306.57 55.37 M256.22 113.86 C269.23 98.98, 280.46 86.51, 304.76 56.51 M260.86 113.53 C272.72 104.33, 278.58 91.42, 306.83 64.92 M262.93 113.68 C271.92 100.8, 281.34 89.63, 304.88 63.68 M268.57 111.7 C276.27 102.51, 287.35 91.48, 305.13 69.44 M266.56 113.37 C282.84 95.1, 297.7 79.17, 304.95 68.8 M271.41 111.35 C278.2 104.05, 286.28 97, 305.39 76.19 M272.93 112.43 C284.34 100.65, 295.4 86.86, 305.74 75.01 M278.08 112.1 C287.26 99.6, 298.62 89.92, 307.25 83.12 M278.6 112.23 C285.85 104.23, 292.48 96.43, 305.67 81.96 M281.79 110.72 C291.53 105.56, 298.53 96.77, 305.49 87.79 M283.28 112.37 C289.27 107.07, 294.72 99.87, 305.44 87.91 M289.76 113.35 C295.57 106.43, 300.69 99.55, 304.89 93.8 M288.61 112.08 C293.64 108.65, 296.32 103.71, 305.19 92.47 M292.78 114.31 C297.19 108.99, 301.34 102.94, 305.09 99.29 M293.87 113.43 C296.76 111.25, 299.22 108.28, 304.69 100.16 M298.41 113.05 C301.55 111.18, 304.74 108.3, 305.81 104.53 M299.72 112.99 C300.97 110.76, 302.94 108.62, 306.21 105.62" stroke="#ced4da" stroke-width="0.5" fill="none"></path><path d="M-0.73 0.48 C92.1 0.94, 184.27 1.92, 303.08 0.92 M0.27 -0.35 C112.49 0.22, 225.7 0.02, 302.64 0.07 M301.23 -0.62 C303.66 31.09, 305.18 66.2, 302.37 109.37 M302.4 -0.22 C303.84 24.78, 302.25 48.65, 303.8 110.6 M303.57 111.6 C226.09 111.71, 150.26 109.99, -1.17 111.8 M303.08 111.7 C214.97 110.74, 128.14 111.67, -0.29 111.02 M1.92 110.61 C2.27 72.62, -0.88 32.07, 0.88 0.89 M-0.6 110.04 C-0.39 75.83, 0.26 41.16, -0.12 0.39" stroke="#000000" stroke-width="1" fill="none"></path></g><g transform="translate(593.5 29.5) rotate(0 146.5 37.5)"><text x="146.5" y="18" font-family="Virgil, Segoe UI Emoji" font-size="20px" fill="#000000" text-anchor="middle" style="white-space: pre;" direction="ltr">Back End</text><text x="146.5" y="43" font-family="Virgil, Segoe UI Emoji" font-size="20px" fill="#000000" text-anchor="middle" style="white-space: pre;" direction="ltr">(Node)</text><text x="146.5" y="68" font-family="Virgil, Segoe UI Emoji" font-size="20px" fill="#000000" text-anchor="middle" style="white-space: pre;" direction="ltr"></text></g><g stroke-linecap="round" transform="translate(578 41.25) rotate(89.86613159987301 45 27)"><path d="M0 0 C0 0, 0 0, 0 0 M0 0 C0 0, 0 0, 0 0 M0.35 6.18 C0.72 5.61, 1.88 3.22, 5.76 -0.11 M-0.49 6.18 C1.31 4.72, 3.18 2.92, 5 0.47 M1.57 13.18 C4.25 7.82, 5.07 5.45, 11.21 0.65 M-0.09 12.08 C4.38 7.55, 6.62 3.74, 11.17 0.52 M-1.95 18 C3.92 13.92, 5.86 9.14, 16.33 0.44 M-0.74 18.42 C4.77 13.31, 10.98 6.52, 15.34 0.03 M0.89 25.48 C4.76 18.73, 10.24 13.25, 21.4 -1.04 M0.12 23.21 C5.35 18.57, 9.73 11.33, 21.17 -0.52 M1.21 29.24 C4.88 25.91, 11.89 17.57, 27.39 1.92 M0.82 29.63 C5.71 24.39, 11.23 15.71, 26.12 -0.61 M0.11 37.48 C11.75 25.14, 20.74 12.57, 33.76 0.25 M-0.64 37.46 C6.55 29.4, 12.91 21.38, 32.43 -0.18 M-0.76 42.33 C7.06 33.44, 15.28 22.01, 35.6 1.15 M-0.22 43.44 C8.03 33.59, 17.41 22.73, 37.44 -0.34 M1.01 50.89 C12.9 35.06, 22.42 21.47, 41.03 0.84 M-0.36 48.64 C16.88 30.07, 32.25 11.83, 43.22 0.7 M1.38 54.82 C19.1 32.41, 38.19 11.14, 48.16 -0.56 M0.98 55.22 C18.87 32.22, 37.57 11.33, 46.76 0.71 M4.68 54.35 C20.53 39.61, 32.81 24.28, 54.53 1.7 M6.38 54.85 C15.71 41.04, 27.67 28.18, 53.58 -0.47 M10.05 52.96 C26.07 36.59, 42.82 19.77, 58.02 -0.1 M11.62 54.58 C27.43 36.39, 44.07 15.96, 57.92 0.21 M15.35 53.84 C34.77 35.91, 50.55 14.61, 62.3 -1.43 M16.79 53.62 C34.92 34.66, 52.59 13.67, 64.41 -0.94 M23.44 53.96 C39.54 35.21, 54.01 16.67, 69.8 1.39 M20.83 54.68 C38.56 35.75, 55.11 17.16, 68.18 0.74 M25.7 54.9 C46.44 31.78, 64.66 13.9, 75.09 -0.05 M26.22 55.09 C45.51 32.22, 62.82 11.9, 74.55 0.39 M32.91 55.69 C47.54 37.5, 57.99 21.37, 77.87 0.59 M32.1 54.92 C50.88 33.81, 67.29 14.93, 79.17 0.71 M38.72 55.56 C50.66 36.82, 63.6 22.45, 84.38 1.16 M36.98 54.01 C54.99 35.91, 69.4 17.45, 85.69 0.01 M42.57 54.83 C59.57 32.55, 80.17 12.41, 88.33 1.92 M41.83 54.11 C53.81 41.4, 65.76 30.03, 89.91 -0.62 M49.12 53.64 C57.81 43.76, 64.56 32.41, 90.45 5.06 M48.79 53.95 C59.41 40.64, 71.2 28.64, 89.52 5.53 M55.23 52.84 C64.38 42.18, 72.07 31.32, 90.47 11.68 M54.29 55.37 C64.35 41.63, 75.06 30.33, 89.32 11.99 M56.68 53.49 C70.71 43.38, 77.47 29.74, 89.54 17 M59.09 55.12 C68.07 42.79, 79.14 31.69, 89.85 17.63 M62.43 53.96 C74.65 41.2, 85.32 29.95, 90.31 23.81 M64.67 55.22 C71.86 43.26, 81.94 34.75, 90.7 24.43 M70.85 52.98 C73.94 47.76, 80.54 41.96, 91.85 31.35 M68.69 54.32 C74.44 50.14, 79.21 43.51, 89.63 29.59 M74.43 55.19 C79.81 48.45, 85.9 43.93, 88.44 38.84 M74.02 54.52 C78.31 48.37, 84.02 44.24, 90.59 37.33 M80.6 54.14 C82.69 51.76, 87.15 47.66, 91.43 42.55 M78.99 54.51 C83.89 49.98, 86.83 46.32, 90.15 43.16 M85.62 53.61 C87.06 53.11, 88.14 50.99, 90.33 49.64 M85.66 54 C86.75 52.11, 88.38 50.76, 90.25 49.31" stroke="#868e96" stroke-width="0.5" fill="none"></path><path d="M-0.61 -1.35 C28.62 2.24, 58.53 -0.8, 91.16 1.1 M-0.58 0.13 C27.82 0.59, 56.96 0.61, 89.21 -0.7 M90.93 -0.68 C90.87 17.44, 89.6 37.54, 88 55.65 M90.58 -0.91 C90.37 11.28, 90.69 23.05, 90.71 53.61 M90.99 52.51 C64.31 54.83, 36.34 55.44, 0.04 55.1 M90.29 54.2 C55.84 53.01, 21.6 54.74, -0.77 53.21 M1.47 54.44 C0.27 43.44, 2.09 29.7, -0.95 1.99 M0.87 53.9 C0.51 43.16, 0.34 30.99, -0.88 -0.34" stroke="#000000" stroke-width="1" fill="none"></path></g><g transform="translate(583 55.75) rotate(89.86613159987301 40 12.5)"><text x="40" y="18" font-family="Virgil, Segoe UI Emoji" font-size="20px" fill="#000000" text-anchor="middle" style="white-space: pre;" direction="ltr">Grpc</text></g></svg>